<?xml version="1.0" encoding="UTF-8"?> <svg xmlns="http://www.w3.org/2000/svg" viewBox="0 0 500.00 500.00" data-guides="{&quot;vertical&quot;:[],&quot;horizontal&quot;:[]}"><defs></defs><path color="rgb(51, 51, 51)" fill="white" width="500" height="500" id="tSvg11e8c7fdd50" title="Rectangle 2" fill-opacity="1" stroke="none" stroke-opacity="1" d="M0 16H500V516H0Z" style="transform-origin: 250px 266px;"></path><path fill="#7234C4" stroke="none" fill-opacity="1" stroke-width="1" stroke-opacity="1" color="rgb(51, 51, 51)" id="tSvg96fff8e456" title="Path 120" d="M96.946 203.007C96.946 203.007 73.6225 258.669 102.885 315.528C132.148 372.388 194.699 403.096 244.723 429.309C294.748 455.522 347.68 443.9 373.769 402.555C399.858 361.209 366.331 330.918 367.83 271.435C369.328 211.951 378.769 196.323 347.582 145.554C316.396 94.7845 236.949 82.5067 175.693 118.888C114.436 155.269 96.946 203.007 96.946 203.007Z"></path><path fill="white" stroke="none" fill-opacity="1" stroke-width="1" stroke-opacity="1" color="rgb(51, 51, 51)" id="tSvg12a46fff3" title="Path 121" d="M96.946 203.007C96.946 203.007 73.6225 258.669 102.885 315.528C132.148 372.388 194.699 403.096 244.723 429.309C294.748 455.522 347.68 443.9 373.769 402.555C399.858 361.209 366.331 330.918 367.83 271.435C369.328 211.951 378.769 196.323 347.582 145.554C316.396 94.7845 236.949 82.5067 175.693 118.888C114.436 155.269 96.946 203.007 96.946 203.007Z"></path><path fill="#7234C4" stroke="none" fill-opacity="1" stroke-width="1" stroke-opacity="1" color="rgb(51, 51, 51)" id="tSvg13662499d09" title="Path 122" d="M420.308 116.715C415.494 114.0558 413.304 116.272 411.549 114.0558C409.794 111.8396 416.363 106.1749 403.234 100.4837C403.234 100.4837 402.347 88.2236 384.414 87.7892C366.48 87.3548 371.285 100.0759 366.462 103.1431C361.64 106.2104 360.337 101.3702 355.523 104.4551C350.71 107.5401 352.864 113.648 348.954 114.5256C345.045 115.4032 339.762 110.5896 334.948 113.6391C330.134 116.689 330.134 119.33 327.945 119.33C325.755 119.33 321.376 117.557 318.752 119.33C316.128 121.103 313.061 123.275 313.061 123.275C349.977 123.275 386.893 123.275 423.809 123.275C423.809 123.275 425.121 119.339 420.308 116.715Z"></path><path fill="white" stroke="none" fill-opacity="1" stroke-width="1" stroke-opacity="1" color="rgb(51, 51, 51)" id="tSvg2510c67960" title="Path 123" d="M420.308 116.715C415.494 114.0558 413.304 116.272 411.549 114.0558C409.794 111.8396 416.363 106.1749 403.234 100.4837C403.234 100.4837 402.347 88.2236 384.414 87.7892C366.48 87.3548 371.285 100.0759 366.462 103.1431C361.64 106.2104 360.337 101.3702 355.523 104.4551C350.71 107.5401 352.864 113.648 348.954 114.5256C345.045 115.4032 339.762 110.5896 334.948 113.6391C330.134 116.689 330.134 119.33 327.945 119.33C325.755 119.33 321.376 117.557 318.752 119.33C316.128 121.103 313.061 123.275 313.061 123.275C349.977 123.275 386.893 123.275 423.809 123.275C423.809 123.275 425.121 119.339 420.308 116.715Z"></path><path fill="#7234C4" stroke="none" fill-opacity="1" stroke-width="1" stroke-opacity="1" color="rgb(51, 51, 51)" id="tSvgdd4addde98" title="Path 124" d="M225.638 259.015C225.638 259.015 248.899 261.311 260.689 275.734C260.689 275.734 273.144 259.024 295.519 259.369C300.983 252.774 304.462 244.763 305.55 236.268C306.637 227.772 305.29 219.143 301.664 211.384C298.038 203.625 292.282 197.055 285.068 192.44C277.853 187.825 269.476 185.354 260.911 185.315C252.347 185.276 243.948 187.67 236.691 192.219C229.435 196.768 223.619 203.285 219.923 211.011C216.226 218.736 214.8 227.353 215.81 235.858C216.82 244.363 220.225 252.405 225.629 259.05C225.632 259.0383 225.635 259.0267 225.638 259.015Z"></path><path fill="white" stroke="none" fill-opacity="1" stroke-width="1" stroke-opacity="1" color="rgb(51, 51, 51)" id="tSvg251c601c93" title="Path 125" d="M225.638 259.015C225.638 259.015 248.899 261.311 260.689 275.734C260.689 275.734 273.144 259.024 295.519 259.369C300.983 252.774 304.462 244.763 305.55 236.268C306.637 227.772 305.29 219.143 301.664 211.384C298.038 203.625 292.282 197.055 285.068 192.44C277.853 187.825 269.476 185.354 260.911 185.315C252.347 185.276 243.948 187.67 236.691 192.219C229.435 196.768 223.619 203.285 219.923 211.011C216.226 218.736 214.8 227.353 215.81 235.858C216.82 244.363 220.225 252.405 225.629 259.05C225.632 259.0383 225.635 259.0267 225.638 259.015Z"></path><path fill="#7E919C" stroke="none" fill-opacity="1" stroke-width="1" stroke-opacity="1" color="rgb(51, 51, 51)" id="tSvg105d0e33886" title="Path 126" d="M259.917 188.486C259.657 267.1587 259.397 345.8313 259.137 424.504C260.446 424.504 261.755 424.504 263.064 424.504C262.015 345.8313 260.966 267.1587 259.917 188.486Z"></path><path fill="#7E919C" stroke="none" fill-opacity="1" stroke-width="1" stroke-opacity="1" color="rgb(51, 51, 51)" id="tSvg57c42daaa5" title="Path 127" d="M261.095 271.337C261.095 271.337 268.949 257.197 283.089 252.88C283.089 252.88 268.16 256.426 260.705 268.588C260.835 269.5043 260.965 270.4207 261.095 271.337Z"></path><path fill="#7E919C" stroke="none" fill-opacity="1" stroke-width="1" stroke-opacity="1" color="rgb(51, 51, 51)" id="tSvg14f8cce1c37" title="Path 128" d="M260.246 231.667C260.246 231.667 268.951 217.146 283.091 212.829C283.091 212.829 267.701 217.262 260.246 229.433C260.246 230.1777 260.246 230.9223 260.246 231.667Z"></path><path fill="#7E919C" stroke="none" fill-opacity="1" stroke-width="1" stroke-opacity="1" color="rgb(51, 51, 51)" id="tSvg1727836373b" title="Path 129" d="M260.546 252.322C260.546 252.322 268.95 237.172 283.089 232.819C283.089 232.819 267.806 237.057 260.342 249.228C260.41 250.2593 260.478 251.2907 260.546 252.322Z"></path><path fill="#7E919C" stroke="none" fill-opacity="1" stroke-width="1" stroke-opacity="1" color="rgb(51, 51, 51)" id="tSvg493cf1edf8" title="Path 130" d="M259.933 241.498C259.933 241.498 252.354 227.358 238.711 223.041C238.711 223.041 253.107 226.587 260.315 238.75C260.1877 239.666 260.0603 240.582 259.933 241.498Z"></path><path fill="#7E919C" stroke="none" fill-opacity="1" stroke-width="1" stroke-opacity="1" color="rgb(51, 51, 51)" id="tSvgd871b8a5fb" title="Path 131" d="M259.933 261.125C259.933 261.125 252.354 246.994 238.711 242.677C238.711 242.677 253.107 246.223 260.315 258.376C260.1877 259.2923 260.0603 260.2087 259.933 261.125Z"></path><path fill="#7234C4" stroke="none" fill-opacity="1" stroke-width="1" stroke-opacity="1" color="rgb(51, 51, 51)" id="tSvgd0cb101066" title="Path 132" d="M92.1138 224.601C92.1138 224.601 132.741 228.617 153.334 253.802C153.334 253.802 175.089 224.628 214.165 225.231C223.713 213.711 229.793 199.716 231.696 184.875C233.599 170.034 231.246 154.958 224.913 141.402C218.58 127.846 208.526 116.368 195.922 108.3047C183.319 100.2411 168.684 95.9238 153.721 95.8553C138.759 95.7869 124.085 99.9701 111.408 107.918C98.7312 115.8659 88.5727 127.251 82.1157 140.749C75.6586 154.246 73.1686 169.3 74.9355 184.158C76.7024 199.016 82.6535 213.066 92.096 224.672C92.1019 224.6483 92.1079 224.6247 92.1138 224.601Z"></path><path fill="white" stroke="none" fill-opacity="1" stroke-width="1" stroke-opacity="1" color="rgb(51, 51, 51)" id="tSvg321757cc2e" title="Path 133" d="M92.1138 224.601C92.1138 224.601 132.741 228.617 153.334 253.802C153.334 253.802 175.089 224.628 214.165 225.231C223.713 213.711 229.793 199.716 231.696 184.875C233.599 170.034 231.246 154.958 224.913 141.402C218.58 127.846 208.526 116.368 195.922 108.3047C183.319 100.2411 168.684 95.9238 153.721 95.8553C138.759 95.7869 124.085 99.9701 111.408 107.918C98.7312 115.8659 88.5727 127.251 82.1157 140.749C75.6586 154.246 73.1686 169.3 74.9355 184.158C76.7024 199.016 82.6535 213.066 92.096 224.672C92.1019 224.6483 92.1079 224.6247 92.1138 224.601Z"></path><path fill="#7E919C" stroke="none" fill-opacity="1" stroke-width="1" stroke-opacity="1" color="rgb(51, 51, 51)" id="tSvg18f83156456" title="Path 134" d="M151.987 101.4336C151.529 209.1241 151.071 316.8145 150.613 424.505C152.9003 424.505 155.1877 424.505 157.475 424.505C155.6457 316.8145 153.8163 209.1241 151.987 101.4336Z"></path><path fill="#7E919C" stroke="none" fill-opacity="1" stroke-width="1" stroke-opacity="1" color="rgb(51, 51, 51)" id="tSvg1283305f533" title="Path 135" d="M154.044 246.134C154.044 246.134 167.758 221.445 192.446 213.901C192.446 213.901 166.393 220.107 153.361 241.329C153.5887 242.9307 153.8163 244.5323 154.044 246.134Z"></path><path fill="#7E919C" stroke="none" fill-opacity="1" stroke-width="1" stroke-opacity="1" color="rgb(51, 51, 51)" id="tSvg1760afbd203" title="Path 136" d="M153.016 177.556C153.016 177.556 167.758 151.493 192.447 143.949C192.447 143.949 166.144 151.103 153.113 172.361C153.0807 174.0927 153.0483 175.8243 153.016 177.556Z"></path><path fill="#7E919C" stroke="none" fill-opacity="1" stroke-width="1" stroke-opacity="1" color="rgb(51, 51, 51)" id="tSvg516c32aba6" title="Path 137" d="M153.424 212.04C153.424 212.04 167.758 186.465 192.429 178.921C192.429 178.921 166.375 185.126 153.344 206.358C153.3707 208.252 153.3973 210.146 153.424 212.04Z"></path><path fill="#7E919C" stroke="none" fill-opacity="1" stroke-width="1" stroke-opacity="1" color="rgb(51, 51, 51)" id="tSvg6cdea7e1bd" title="Path 138" d="M152.014 194.009C152.014 194.009 138.779 169.32 114.959 161.776C114.959 161.776 140.1 167.982 152.67 189.213C152.4513 190.8117 152.2327 192.4103 152.014 194.009Z"></path><path fill="#7E919C" stroke="none" fill-opacity="1" stroke-width="1" stroke-opacity="1" color="rgb(51, 51, 51)" id="tSvg191b4a96ff9" title="Path 139" d="M152.014 228.298C152.014 228.298 138.779 203.609 114.959 196.065C114.959 196.065 140.1 202.271 152.67 223.547C152.4513 225.1307 152.2327 226.7143 152.014 228.298Z"></path><path fill="#7234C4" stroke="none" fill-opacity="1" stroke-width="1" stroke-opacity="1" color="rgb(51, 51, 51)" id="tSvg377d5cb390" title="Path 140" d="M384.096 304.704C384.052 304.704 384.619 301.876 384.681 301.708C385.337 299.677 387.793 296.158 390.169 296.167C390.564 296.178 390.952 296.273 391.309 296.444C391.665 296.616 391.981 296.86 392.236 297.162C392.491 297.465 392.68 297.817 392.79 298.197C392.899 298.577 392.927 298.976 392.872 299.367C392.704 301.034 391.206 302.461 389.841 303.285C388.254 304.252 384.096 304.704 384.096 304.704Z"></path><path fill="#7234C4" stroke="none" fill-opacity="1" stroke-width="1" stroke-opacity="1" color="rgb(51, 51, 51)" id="tSvged368563b" title="Path 141" d="M379.487 285.645C381.729 286.443 382.838 290.592 382.767 292.737C382.767 292.914 382.341 295.778 382.297 295.76C382.282 295.76 382.267 295.76 382.252 295.76C382.439 296.416 382.625 297.116 382.811 297.887C383.148 299.315 383.511 300.937 383.795 302.719C384.117 304.64 384.327 306.579 384.424 308.525C384.551 310.702 384.477 312.886 384.203 315.05C384.203 315.05 384.203 315.103 384.203 315.13C384.495 314.491 385.373 312.754 385.462 312.63C386.623 310.857 389.894 308.1 392.217 308.729C392.595 308.844 392.945 309.038 393.244 309.297C393.543 309.557 393.784 309.876 393.951 310.235C394.119 310.594 394.209 310.984 394.215 311.38C394.222 311.775 394.145 312.168 393.99 312.532C393.387 314.101 391.561 315.076 390.036 315.511C388.307 316.007 384.469 315.422 384.167 315.378C383.84 317.573 383.366 319.744 382.749 321.876C382.403 323.126 382.004 324.367 381.596 325.608C381.7823 325.2473 381.9687 324.8867 382.155 324.526C383.325 322.753 386.587 319.996 388.919 320.635C389.298 320.75 389.648 320.943 389.947 321.203C390.246 321.462 390.487 321.782 390.654 322.141C390.821 322.499 390.911 322.889 390.917 323.285C390.924 323.681 390.847 324.074 390.692 324.438C390.08 325.998 388.263 326.982 386.729 327.416C385.196 327.851 381.898 327.416 381.029 327.301C380.8693 327.7767 380.7097 328.2523 380.55 328.728C379.761 330.998 378.972 333.267 378.254 335.51C378.006 336.299 377.793 337.088 377.572 337.877C377.811 337.398 378.015 336.99 378.059 336.99C379.221 335.217 382.492 332.46 384.814 333.09C385.193 333.205 385.543 333.399 385.842 333.658C386.141 333.917 386.382 334.237 386.549 334.596C386.717 334.955 386.806 335.344 386.813 335.74C386.82 336.136 386.743 336.529 386.587 336.893C385.985 338.462 384.158 339.437 382.634 339.871C381.109 340.306 378.121 339.925 377.084 339.783C376.88 340.598 376.676 341.414 376.526 342.212C376.428 342.761 376.295 343.275 376.224 343.834C376.153 344.392 376.074 344.924 376.003 345.465C375.896 346.502 375.772 347.575 375.692 348.594C375.639 349.304 375.595 349.977 375.542 350.651C375.781 349.862 376.286 348.328 376.348 348.204C377.187 346.535 378.438 345.107 379.983 344.056C380.072 343.868 380.176 343.687 380.293 343.515C380.508 343.183 380.791 342.9 381.122 342.685C381.454 342.469 381.828 342.326 382.218 342.265C382.609 342.204 383.009 342.226 383.39 342.33C383.772 342.434 384.127 342.617 384.433 342.868C386.206 344.419 385.79 348.692 384.956 350.651C384.912 350.766 384.238 351.954 383.804 352.699C384.123 352.3 384.433 351.91 384.77 351.502C385.435 350.695 386.118 349.906 386.853 349.055C387.2223 348.6533 387.5917 348.2517 387.961 347.85C388.325 347.433 388.768 347.043 389.167 346.644C390.124 345.758 391.126 344.871 392.163 343.985C391.463 343.4 388.972 341.325 388.263 339.88C387.554 338.435 387.039 336.45 387.784 334.943C387.948 334.583 388.186 334.262 388.482 334C388.778 333.738 389.126 333.541 389.503 333.423C389.88 333.304 390.278 333.266 390.67 333.311C391.063 333.356 391.442 333.483 391.782 333.684C393.794 334.943 393.998 339.233 393.475 341.29C393.475 341.423 392.899 342.859 392.589 343.639C393.218 343.125 393.839 342.602 394.495 342.096C396.374 340.643 398.324 339.233 400.266 337.806C400.86 337.38 401.445 336.919 402.039 336.494C401.782 336.29 398.777 333.834 397.979 332.265C397.27 330.847 396.755 328.844 397.5 327.336C397.654 326.977 397.881 326.653 398.167 326.386C398.453 326.118 398.791 325.914 399.161 325.784C399.53 325.655 399.923 325.604 400.313 325.635C400.703 325.665 401.082 325.777 401.427 325.962C403.439 327.23 403.643 331.512 403.12 333.577C403.12 333.728 402.305 335.794 402.074 336.308C403.377 335.35 404.654 334.375 405.886 333.365C407.549 332.005 409.121 330.54 410.593 328.976C410.478 328.879 407.322 326.317 406.507 324.721C405.798 323.303 405.283 321.3 406.028 319.792C406.192 319.433 406.43 319.112 406.726 318.85C407.022 318.588 407.369 318.391 407.746 318.271C408.122 318.152 408.52 318.113 408.913 318.156C409.305 318.2 409.685 318.326 410.026 318.525C412.038 319.792 412.242 324.083 411.719 326.14C411.719 326.273 411.09 327.851 410.788 328.595C410.8267 328.6187 410.8653 328.6423 410.904 328.666C412.346 327.054 413.639 325.316 414.769 323.471C415.407 322.47 415.957 321.468 416.471 320.493C415.841 320.076 412.925 318.179 412.038 316.787C411.152 315.396 410.452 313.516 411.019 311.938C411.145 311.56 411.35 311.212 411.62 310.918C411.89 310.624 412.22 310.391 412.586 310.234C412.953 310.076 413.349 309.998 413.748 310.005C414.147 310.011 414.54 310.102 414.902 310.272C417.047 311.309 417.712 315.591 417.419 317.656C417.419 317.771 417.118 318.915 416.887 319.748C417.118 319.305 417.357 318.862 417.561 318.41C418.35 316.787 418.962 315.263 419.503 313.897C419.795 313.117 420.052 312.408 420.283 311.743C419.875 311.016 418.244 308.073 418.084 306.424C417.925 304.775 418.182 302.79 419.423 301.655C419.704 301.377 420.041 301.161 420.411 301.021C420.782 300.882 421.177 300.823 421.572 300.847C421.967 300.871 422.353 300.979 422.704 301.162C423.054 301.346 423.362 301.601 423.607 301.912C425.025 303.818 423.669 307.887 422.437 309.624C422.33 309.775 420.398 311.929 420.38 311.885C420.38 311.8703 420.38 311.8557 420.38 311.841C420.176 312.488 419.937 313.179 419.671 313.924C419.166 315.298 418.581 316.849 417.827 318.498C417.039 320.275 416.151 322.007 415.168 323.684C414.066 325.566 412.8 327.346 411.382 329.003C411.3643 329.0237 411.3467 329.0443 411.329 329.065C411.923 328.702 413.616 327.727 413.749 327.673C415.708 326.831 419.955 326.361 421.533 328.152C421.785 328.457 421.97 328.812 422.076 329.193C422.182 329.574 422.206 329.973 422.148 330.365C422.089 330.756 421.949 331.131 421.736 331.464C421.523 331.798 421.242 332.083 420.912 332.301C419.538 333.267 417.481 333.081 415.966 332.602C414.263 332.053 411.374 329.455 411.152 329.251C409.668 330.902 408.075 332.451 406.383 333.888C405.407 334.774 404.388 335.554 403.36 336.361C403.7143 336.163 404.0687 335.965 404.423 335.767C406.383 334.934 410.629 334.455 412.216 336.255C412.467 336.559 412.651 336.914 412.757 337.295C412.862 337.676 412.886 338.074 412.826 338.465C412.767 338.856 412.626 339.23 412.412 339.562C412.198 339.894 411.917 340.178 411.586 340.394C410.212 341.37 408.156 341.175 406.64 340.696C405.124 340.217 402.606 338.036 401.95 337.46C401.554 337.7557 401.158 338.0513 400.762 338.347C398.856 339.809 396.942 341.263 395.106 342.779C394.459 343.302 393.848 343.834 393.227 344.375C393.5227 344.2037 393.8183 344.0323 394.114 343.861C396.064 343.018 400.319 342.549 401.897 344.339C402.148 344.645 402.332 345 402.437 345.381C402.542 345.762 402.566 346.16 402.508 346.551C402.449 346.942 402.309 347.317 402.097 347.65C401.885 347.984 401.606 348.269 401.276 348.488C399.902 349.454 397.846 349.268 396.33 348.789C394.814 348.311 392.536 346.343 391.756 345.651C391.135 346.219 390.514 346.786 389.983 347.362C389.601 347.77 389.202 348.133 388.839 348.559C388.4757 348.9697 388.1123 349.3803 387.749 349.791C387.093 350.598 386.401 351.431 385.772 352.229C385.329 352.787 384.885 353.328 384.504 353.869C385.142 353.337 386.41 352.335 386.525 352.264C388.298 351.139 392.474 350.022 394.291 351.564C394.585 351.829 394.82 352.152 394.981 352.513C395.142 352.874 395.225 353.265 395.225 353.661C395.225 354.056 395.142 354.447 394.981 354.808C394.82 355.17 394.585 355.493 394.291 355.757C393.076 356.919 391.011 357.043 389.442 356.803C387.722 356.528 384.593 354.49 384.203 354.232C383.52 355.119 382.864 356.005 382.261 356.892C380.16 359.8 378.52 362.299 377.395 364.064C377.3563 364.123 377.3177 364.182 377.279 364.241C376.7887 363.981 376.2983 363.721 375.808 363.461C375.8847 363.3457 375.9613 363.2303 376.038 363.115C377.208 361.342 378.919 358.86 381.109 355.97C381.8 355.083 382.554 354.091 383.334 353.115C382.532 352.224 381.78 351.289 381.082 350.314C379.407 350.97 375.923 350.997 375.471 350.997C375.4 352.123 375.338 353.213 375.302 354.25C375.152 357.796 375.161 360.828 375.196 362.92C375.196 362.9997 375.196 363.0793 375.196 363.159C374.664 362.902 374.132 362.645 373.6 362.388C373.6 360.305 373.68 357.495 373.893 354.179C373.964 353.036 374.061 351.812 374.168 350.562C373.724 350.447 370.108 349.516 368.742 348.426C367.377 347.336 366.189 345.829 366.234 344.153C366.232 343.757 366.313 343.366 366.472 343.003C366.631 342.641 366.864 342.316 367.157 342.05C367.449 341.783 367.794 341.581 368.17 341.456C368.545 341.331 368.943 341.287 369.336 341.325C371.694 341.627 373.68 345.439 374.061 347.531C374.061 347.655 374.185 349.02 374.239 349.88C374.283 349.366 374.327 348.869 374.38 348.346C374.487 347.309 374.62 346.272 374.762 345.155C374.8507 344.6143 374.9393 344.0737 375.028 343.533C375.107 342.992 375.249 342.424 375.364 341.866C375.648 340.572 376.003 339.277 376.393 337.974C375.506 337.886 372.253 337.504 370.87 336.707C369.487 335.909 367.962 334.526 367.75 332.859C367.687 332.467 367.707 332.066 367.811 331.682C367.914 331.298 368.097 330.94 368.348 330.632C368.599 330.324 368.913 330.073 369.268 329.894C369.623 329.716 370.012 329.615 370.409 329.597C372.785 329.544 375.32 333.01 376.02 335.013C376.065 335.138 376.41 336.636 376.579 337.46C376.818 336.68 377.049 335.9 377.315 335.12C378.086 332.868 378.928 330.616 379.761 328.365C380.018 327.673 380.267 326.982 380.515 326.29C380.187 326.29 376.34 325.892 374.797 325.005C373.414 324.216 371.889 322.824 371.677 321.158C371.614 320.765 371.635 320.364 371.738 319.98C371.841 319.596 372.024 319.239 372.275 318.93C372.526 318.622 372.84 318.371 373.195 318.193C373.55 318.014 373.939 317.913 374.336 317.895C376.712 317.833 379.247 321.3 379.948 323.312C380.001 323.463 380.488 325.617 380.586 326.166C381.135 324.65 381.667 323.126 382.137 321.61C382.773 319.558 383.277 317.468 383.644 315.351C383.494 315.351 379.478 314.97 377.891 314.057C376.517 313.268 374.983 311.876 374.77 310.21C374.708 309.817 374.728 309.416 374.832 309.032C374.935 308.648 375.118 308.29 375.369 307.982C375.62 307.674 375.934 307.423 376.289 307.244C376.644 307.066 377.033 306.965 377.43 306.947C379.815 306.894 382.341 310.36 383.041 312.364C383.095 312.497 383.467 314.137 383.627 314.917C383.6503 314.917 383.6737 314.917 383.697 314.917C384.008 312.778 384.13 310.615 384.061 308.454C384.061 307.266 383.946 306.132 383.83 305.032C383.077 305.032 379.62 305.033 378.104 304.377C376.588 303.721 374.974 302.524 374.558 300.893C374.449 300.51 374.422 300.109 374.479 299.716C374.537 299.323 374.677 298.946 374.891 298.611C375.104 298.276 375.386 297.99 375.719 297.772C376.051 297.554 376.426 297.409 376.818 297.347C379.176 297.028 382.075 300.192 383.024 302.107C383.077 302.213 383.467 303.33 383.742 304.146C383.68 303.65 383.626 303.135 383.564 302.657C383.325 300.884 382.988 299.261 382.678 297.825C382.501 297.019 382.323 296.283 382.146 295.6C381.401 295.228 378.414 293.659 377.395 292.4C376.375 291.141 375.462 289.315 375.87 287.684C375.959 287.304 376.125 286.946 376.36 286.634C376.594 286.322 376.89 286.062 377.23 285.87C377.57 285.678 377.946 285.56 378.335 285.521C378.723 285.482 379.115 285.524 379.487 285.645Z"></path><path fill="#7234C4" stroke="none" fill-opacity="1" stroke-width="1" stroke-opacity="1" color="rgb(51, 51, 51)" id="tSvgd044f9de52" title="Path 142" d="M422.517 322.328C420.646 322.257 416.932 320.351 416.932 320.351C416.932 320.351 418.935 318.277 419.077 318.162C420.735 316.841 424.724 315.254 426.71 316.575C427.032 316.802 427.303 317.095 427.505 317.434C427.707 317.773 427.836 318.151 427.882 318.543C427.929 318.935 427.893 319.332 427.777 319.71C427.66 320.087 427.466 320.435 427.206 320.732C426.133 322.035 424.094 322.399 422.517 322.328Z"></path><path fill="white" stroke="none" fill-opacity="1" stroke-width="1" stroke-opacity="1" color="rgb(51, 51, 51)" id="tSvg15c135dc209" title="Path 143" d="M384.096 304.704C384.052 304.704 384.619 301.876 384.681 301.708C385.337 299.677 387.793 296.158 390.169 296.167C390.564 296.178 390.952 296.273 391.309 296.444C391.665 296.616 391.981 296.86 392.236 297.162C392.491 297.465 392.68 297.817 392.79 298.197C392.899 298.577 392.927 298.976 392.872 299.367C392.704 301.034 391.206 302.461 389.841 303.285C388.254 304.252 384.096 304.704 384.096 304.704Z"></path><path fill="white" stroke="none" fill-opacity="1" stroke-width="1" stroke-opacity="1" color="rgb(51, 51, 51)" id="tSvg84b9c45ebb" title="Path 144" d="M379.487 285.645C381.729 286.443 382.838 290.592 382.767 292.737C382.767 292.914 382.341 295.778 382.297 295.76C382.282 295.76 382.267 295.76 382.252 295.76C382.439 296.416 382.625 297.116 382.811 297.887C383.148 299.315 383.511 300.937 383.795 302.719C384.117 304.64 384.327 306.579 384.424 308.525C384.551 310.702 384.477 312.886 384.203 315.05C384.203 315.05 384.203 315.103 384.203 315.13C384.495 314.491 385.373 312.754 385.462 312.63C386.623 310.857 389.894 308.1 392.217 308.729C392.595 308.844 392.945 309.038 393.244 309.297C393.543 309.557 393.784 309.876 393.951 310.235C394.119 310.594 394.209 310.984 394.215 311.38C394.222 311.775 394.145 312.168 393.99 312.532C393.387 314.101 391.561 315.076 390.036 315.511C388.307 316.007 384.469 315.422 384.167 315.378C383.84 317.573 383.366 319.744 382.749 321.876C382.403 323.126 382.004 324.367 381.596 325.608C381.7823 325.2473 381.9687 324.8867 382.155 324.526C383.325 322.753 386.587 319.996 388.919 320.635C389.298 320.75 389.648 320.943 389.947 321.203C390.246 321.462 390.487 321.782 390.654 322.141C390.821 322.499 390.911 322.889 390.917 323.285C390.924 323.681 390.847 324.074 390.692 324.438C390.08 325.998 388.263 326.982 386.729 327.416C385.196 327.851 381.898 327.416 381.029 327.301C380.8693 327.7767 380.7097 328.2523 380.55 328.728C379.761 330.998 378.972 333.267 378.254 335.51C378.006 336.299 377.793 337.088 377.572 337.877C377.811 337.398 378.015 336.99 378.059 336.99C379.221 335.217 382.492 332.46 384.814 333.09C385.193 333.205 385.543 333.399 385.842 333.658C386.141 333.917 386.382 334.237 386.549 334.596C386.717 334.955 386.806 335.344 386.813 335.74C386.82 336.136 386.743 336.529 386.587 336.893C385.985 338.462 384.158 339.437 382.634 339.871C381.109 340.306 378.121 339.925 377.084 339.783C376.88 340.598 376.676 341.414 376.526 342.212C376.428 342.761 376.295 343.275 376.224 343.834C376.153 344.392 376.074 344.924 376.003 345.465C375.896 346.502 375.772 347.575 375.692 348.594C375.639 349.304 375.595 349.977 375.542 350.651C375.781 349.862 376.286 348.328 376.348 348.204C377.187 346.535 378.438 345.107 379.983 344.056C380.072 343.868 380.176 343.687 380.293 343.515C380.508 343.183 380.791 342.9 381.122 342.685C381.454 342.469 381.828 342.326 382.218 342.265C382.609 342.204 383.009 342.226 383.39 342.33C383.772 342.434 384.127 342.617 384.433 342.868C386.206 344.419 385.79 348.692 384.956 350.651C384.912 350.766 384.238 351.954 383.804 352.699C384.123 352.3 384.433 351.91 384.77 351.502C385.435 350.695 386.118 349.906 386.853 349.055C387.2223 348.6533 387.5917 348.2517 387.961 347.85C388.325 347.433 388.768 347.043 389.167 346.644C390.124 345.758 391.126 344.871 392.163 343.985C391.463 343.4 388.972 341.325 388.263 339.88C387.554 338.435 387.039 336.45 387.784 334.943C387.948 334.583 388.186 334.262 388.482 334C388.778 333.738 389.126 333.541 389.503 333.423C389.88 333.304 390.278 333.266 390.67 333.311C391.063 333.356 391.442 333.483 391.782 333.684C393.794 334.943 393.998 339.233 393.475 341.29C393.475 341.423 392.899 342.859 392.589 343.639C393.218 343.125 393.839 342.602 394.495 342.096C396.374 340.643 398.324 339.233 400.266 337.806C400.86 337.38 401.445 336.919 402.039 336.494C401.782 336.29 398.777 333.834 397.979 332.265C397.27 330.847 396.755 328.844 397.5 327.336C397.654 326.977 397.881 326.653 398.167 326.386C398.453 326.118 398.791 325.914 399.161 325.784C399.53 325.655 399.923 325.604 400.313 325.635C400.703 325.665 401.082 325.777 401.427 325.962C403.439 327.23 403.643 331.512 403.12 333.577C403.12 333.728 402.305 335.794 402.074 336.308C403.377 335.35 404.654 334.375 405.886 333.365C407.549 332.005 409.121 330.54 410.593 328.976C410.478 328.879 407.322 326.317 406.507 324.721C405.798 323.303 405.283 321.3 406.028 319.792C406.192 319.433 406.43 319.112 406.726 318.85C407.022 318.588 407.369 318.391 407.746 318.271C408.122 318.152 408.52 318.113 408.913 318.156C409.305 318.2 409.685 318.326 410.026 318.525C412.038 319.792 412.242 324.083 411.719 326.14C411.719 326.273 411.09 327.851 410.788 328.595C410.8267 328.6187 410.8653 328.6423 410.904 328.666C412.346 327.054 413.639 325.316 414.769 323.471C415.407 322.47 415.957 321.468 416.471 320.493C415.841 320.076 412.925 318.179 412.038 316.787C411.152 315.396 410.452 313.516 411.019 311.938C411.145 311.56 411.35 311.212 411.62 310.918C411.89 310.624 412.22 310.391 412.586 310.234C412.953 310.076 413.349 309.998 413.748 310.005C414.147 310.011 414.54 310.102 414.902 310.272C417.047 311.309 417.712 315.591 417.419 317.656C417.419 317.771 417.118 318.915 416.887 319.748C417.118 319.305 417.357 318.862 417.561 318.41C418.35 316.787 418.962 315.263 419.503 313.897C419.795 313.117 420.052 312.408 420.283 311.743C419.875 311.016 418.244 308.073 418.084 306.424C417.925 304.775 418.182 302.79 419.423 301.655C419.704 301.377 420.041 301.161 420.411 301.021C420.782 300.882 421.177 300.823 421.572 300.847C421.967 300.871 422.353 300.979 422.704 301.162C423.054 301.346 423.362 301.601 423.607 301.912C425.025 303.818 423.669 307.887 422.437 309.624C422.33 309.775 420.398 311.929 420.38 311.885C420.38 311.8703 420.38 311.8557 420.38 311.841C420.176 312.488 419.937 313.179 419.671 313.924C419.166 315.298 418.581 316.849 417.827 318.498C417.039 320.275 416.151 322.007 415.168 323.684C414.066 325.566 412.8 327.346 411.382 329.003C411.3643 329.0237 411.3467 329.0443 411.329 329.065C411.923 328.702 413.616 327.727 413.749 327.673C415.708 326.831 419.955 326.361 421.533 328.152C421.785 328.457 421.97 328.812 422.076 329.193C422.182 329.574 422.206 329.973 422.148 330.365C422.089 330.756 421.949 331.131 421.736 331.464C421.523 331.798 421.242 332.083 420.912 332.301C419.538 333.267 417.481 333.081 415.966 332.602C414.263 332.053 411.374 329.455 411.152 329.251C409.668 330.902 408.075 332.451 406.383 333.888C405.407 334.774 404.388 335.554 403.36 336.361C403.7143 336.163 404.0687 335.965 404.423 335.767C406.383 334.934 410.629 334.455 412.216 336.255C412.467 336.559 412.651 336.914 412.757 337.295C412.862 337.676 412.886 338.074 412.826 338.465C412.767 338.856 412.626 339.23 412.412 339.562C412.198 339.894 411.917 340.178 411.586 340.394C410.212 341.37 408.156 341.175 406.64 340.696C405.124 340.217 402.606 338.036 401.95 337.46C401.554 337.7557 401.158 338.0513 400.762 338.347C398.856 339.809 396.942 341.263 395.106 342.779C394.459 343.302 393.848 343.834 393.227 344.375C393.5227 344.2037 393.8183 344.0323 394.114 343.861C396.064 343.018 400.319 342.549 401.897 344.339C402.148 344.645 402.332 345 402.437 345.381C402.542 345.762 402.566 346.16 402.508 346.551C402.449 346.942 402.309 347.317 402.097 347.65C401.885 347.984 401.606 348.269 401.276 348.488C399.902 349.454 397.846 349.268 396.33 348.789C394.814 348.311 392.536 346.343 391.756 345.651C391.135 346.219 390.514 346.786 389.983 347.362C389.601 347.77 389.202 348.133 388.839 348.559C388.4757 348.9697 388.1123 349.3803 387.749 349.791C387.093 350.598 386.401 351.431 385.772 352.229C385.329 352.787 384.885 353.328 384.504 353.869C385.142 353.337 386.41 352.335 386.525 352.264C388.298 351.139 392.474 350.022 394.291 351.564C394.585 351.829 394.82 352.152 394.981 352.513C395.142 352.874 395.225 353.265 395.225 353.661C395.225 354.056 395.142 354.447 394.981 354.808C394.82 355.17 394.585 355.493 394.291 355.757C393.076 356.919 391.011 357.043 389.442 356.803C387.722 356.528 384.593 354.49 384.203 354.232C383.52 355.119 382.864 356.005 382.261 356.892C380.16 359.8 378.52 362.299 377.395 364.064C377.3563 364.123 377.3177 364.182 377.279 364.241C376.7887 363.981 376.2983 363.721 375.808 363.461C375.8847 363.3457 375.9613 363.2303 376.038 363.115C377.208 361.342 378.919 358.86 381.109 355.97C381.8 355.083 382.554 354.091 383.334 353.115C382.532 352.224 381.78 351.289 381.082 350.314C379.407 350.97 375.923 350.997 375.471 350.997C375.4 352.123 375.338 353.213 375.302 354.25C375.152 357.796 375.161 360.828 375.196 362.92C375.196 362.9997 375.196 363.0793 375.196 363.159C374.664 362.902 374.132 362.645 373.6 362.388C373.6 360.305 373.68 357.495 373.893 354.179C373.964 353.036 374.061 351.812 374.168 350.562C373.724 350.447 370.108 349.516 368.742 348.426C367.377 347.336 366.189 345.829 366.234 344.153C366.232 343.757 366.313 343.366 366.472 343.003C366.631 342.641 366.864 342.316 367.157 342.05C367.449 341.783 367.794 341.581 368.17 341.456C368.545 341.331 368.943 341.287 369.336 341.325C371.694 341.627 373.68 345.439 374.061 347.531C374.061 347.655 374.185 349.02 374.239 349.88C374.283 349.366 374.327 348.869 374.38 348.346C374.487 347.309 374.62 346.272 374.762 345.155C374.8507 344.6143 374.9393 344.0737 375.028 343.533C375.107 342.992 375.249 342.424 375.364 341.866C375.648 340.572 376.003 339.277 376.393 337.974C375.506 337.886 372.253 337.504 370.87 336.707C369.487 335.909 367.962 334.526 367.75 332.859C367.687 332.467 367.707 332.066 367.811 331.682C367.914 331.298 368.097 330.94 368.348 330.632C368.599 330.324 368.913 330.073 369.268 329.894C369.623 329.716 370.012 329.615 370.409 329.597C372.785 329.544 375.32 333.01 376.02 335.013C376.065 335.138 376.41 336.636 376.579 337.46C376.818 336.68 377.049 335.9 377.315 335.12C378.086 332.868 378.928 330.616 379.761 328.365C380.018 327.673 380.267 326.982 380.515 326.29C380.187 326.29 376.34 325.892 374.797 325.005C373.414 324.216 371.889 322.824 371.677 321.158C371.614 320.765 371.635 320.364 371.738 319.98C371.841 319.596 372.024 319.239 372.275 318.93C372.526 318.622 372.84 318.371 373.195 318.193C373.55 318.014 373.939 317.913 374.336 317.895C376.712 317.833 379.247 321.3 379.948 323.312C380.001 323.463 380.488 325.617 380.586 326.166C381.135 324.65 381.667 323.126 382.137 321.61C382.773 319.558 383.277 317.468 383.644 315.351C383.494 315.351 379.478 314.97 377.891 314.057C376.517 313.268 374.983 311.876 374.77 310.21C374.708 309.817 374.728 309.416 374.832 309.032C374.935 308.648 375.118 308.29 375.369 307.982C375.62 307.674 375.934 307.423 376.289 307.244C376.644 307.066 377.033 306.965 377.43 306.947C379.815 306.894 382.341 310.36 383.041 312.364C383.095 312.497 383.467 314.137 383.627 314.917C383.6503 314.917 383.6737 314.917 383.697 314.917C384.008 312.778 384.13 310.615 384.061 308.454C384.061 307.266 383.946 306.132 383.83 305.032C383.077 305.032 379.62 305.033 378.104 304.377C376.588 303.721 374.974 302.524 374.558 300.893C374.449 300.51 374.422 300.109 374.479 299.716C374.537 299.323 374.677 298.946 374.891 298.611C375.104 298.276 375.386 297.99 375.719 297.772C376.051 297.554 376.426 297.409 376.818 297.347C379.176 297.028 382.075 300.192 383.024 302.107C383.077 302.213 383.467 303.33 383.742 304.146C383.68 303.65 383.626 303.135 383.564 302.657C383.325 300.884 382.988 299.261 382.678 297.825C382.501 297.019 382.323 296.283 382.146 295.6C381.401 295.228 378.414 293.659 377.395 292.4C376.375 291.141 375.462 289.315 375.87 287.684C375.959 287.304 376.125 286.946 376.36 286.634C376.594 286.322 376.89 286.062 377.23 285.87C377.57 285.678 377.946 285.56 378.335 285.521C378.723 285.482 379.115 285.524 379.487 285.645Z"></path><path fill="white" stroke="none" fill-opacity="1" stroke-width="1" stroke-opacity="1" color="rgb(51, 51, 51)" id="tSvg180cf93f4a8" title="Path 145" d="M422.517 322.327C420.646 322.256 416.932 320.35 416.932 320.35C416.932 320.35 418.935 318.276 419.077 318.161C420.735 316.84 424.724 315.253 426.71 316.574C427.032 316.801 427.303 317.094 427.505 317.433C427.707 317.772 427.836 318.15 427.882 318.542C427.929 318.934 427.893 319.331 427.777 319.709C427.66 320.086 427.466 320.434 427.206 320.731C426.133 322.034 424.094 322.398 422.517 322.327Z"></path><path fill="#7234C4" stroke="none" fill-opacity="1" stroke-width="1" stroke-opacity="1" color="rgb(51, 51, 51)" id="tSvg10d967a5fb1" title="Path 146" d="M400.798 368.904C400.798 368.904 389.513 341.698 383.193 342.885C376.872 344.073 394.025 386.252 394.025 386.252C394.025 386.252 374.168 348.798 360.623 348.798C347.077 348.798 365.587 390.197 382.74 404C382.74 404 355.658 374.817 339.861 381.128C324.064 387.44 371.455 417.013 371.455 417.013C371.455 417.013 343.921 408.335 347.086 415.037C350.251 421.738 358.814 422.926 358.814 422.926C348.4333 423.452 338.0527 423.978 327.672 424.504C363.7813 424.504 399.8907 424.504 436 424.504C427.877 423.715 419.754 422.926 411.631 422.137C411.631 422.137 436.905 409.523 430.132 404.408C423.359 399.293 408.466 410.329 408.466 410.329C408.466 410.329 434.174 381.962 429.228 371.324C424.281 360.686 402.146 390.649 402.146 390.649C402.146 390.649 420.203 352.397 416.595 345.696C412.987 338.994 400.798 368.904 400.798 368.904Z"></path><path fill="white" stroke="none" fill-opacity="1" stroke-width="1" stroke-opacity="1" color="rgb(51, 51, 51)" id="tSvg13288bf2160" title="Path 147" d="M400.798 368.904C400.798 368.904 389.513 341.698 383.193 342.885C376.872 344.073 394.025 386.252 394.025 386.252C394.025 386.252 374.168 348.798 360.623 348.798C347.077 348.798 365.587 390.197 382.74 404C382.74 404 355.658 374.817 339.861 381.128C324.064 387.44 371.455 417.013 371.455 417.013C371.455 417.013 343.921 408.335 347.086 415.037C350.251 421.738 358.814 422.926 358.814 422.926C348.4333 423.452 338.0527 423.978 327.672 424.504C363.7813 424.504 399.8907 424.504 436 424.504C427.877 423.715 419.754 422.926 411.631 422.137C411.631 422.137 436.905 409.523 430.132 404.408C423.359 399.293 408.466 410.329 408.466 410.329C408.466 410.329 434.174 381.962 429.228 371.324C424.281 360.686 402.146 390.649 402.146 390.649C402.146 390.649 420.203 352.397 416.595 345.696C412.987 338.994 400.798 368.904 400.798 368.904Z"></path><path fill="none" stroke="#7E919C" fill-opacity="1" stroke-width="1.15613" stroke-opacity="1" color="rgb(51, 51, 51)" stroke-linecap="round" stroke-linejoin="round" id="tSvg2969577277" title="Path 148" d="M404.405 370.34C394.477 399.683 394.477 420.444 394.477 420.444C394.477 420.444 406.214 420.896 418.412 411.863"></path><path fill="none" stroke="#7E919C" fill-opacity="1" stroke-width="1.15613" stroke-opacity="1" color="rgb(51, 51, 51)" stroke-linecap="round" stroke-linejoin="round" id="tSvg114ff8a3ec1" title="Path 149" d="M399.442 386.137C397.393 377.372 394.675 368.778 391.312 360.429"></path><path fill="none" stroke="#7E919C" fill-opacity="1" stroke-width="1.15613" stroke-opacity="1" color="rgb(51, 51, 51)" stroke-linecap="round" stroke-linejoin="round" id="tSvg1407a7c2321" title="Path 150" d="M370.098 368.983C378.5253 381.4707 386.9527 393.9583 395.38 406.446C395.38 406.446 412.525 392.005 418.429 383.876"></path><path fill="none" stroke="#7E919C" fill-opacity="1" stroke-width="1.15613" stroke-opacity="1" color="rgb(51, 51, 51)" stroke-linecap="round" stroke-linejoin="round" id="tSvg86b327d8b2" title="Path 151" d="M394.93 415.48C394.93 415.48 368.335 402.839 357.467 395.614"></path><path fill="white" stroke="#00154A" fill-opacity="1" stroke-width="1.15613" stroke-opacity="1" color="rgb(51, 51, 51)" stroke-linecap="round" stroke-linejoin="round" id="tSvg95f0cf983a" title="Path 152" d="M370.312 341.581C370.312 341.581 369.718 362.281 372.289 371.722C374.859 381.163 380.364 402.075 381.348 406.41C382.332 410.745 380.958 417.642 380.958 417.642C380.958 417.642 371.296 421.986 370.117 422.376C368.938 422.766 370.312 423.954 372.484 424.344C374.655 424.734 390.213 425.532 391.011 423.555C391.809 421.578 391.596 414.69 392.385 411.144C393.174 407.598 398.502 395.187 395.931 386.322C393.36 377.457 392.385 369.568 393.165 366.022C393.945 362.476 396.516 353.407 397.305 352.423C398.094 351.439 402.234 348.682 403.812 345.916C404.821 343.956 405.424 341.812 405.585 339.613C405.585 339.613 382.536 344.143 370.312 341.581Z"></path><path fill="#00154A" stroke="#00154A" fill-opacity="1" stroke-width="1.15613" stroke-opacity="1" color="rgb(51, 51, 51)" stroke-linecap="round" stroke-linejoin="round" id="tSvg1243fc880b2" title="Path 153" d="M403.82 345.916C404.83 343.956 405.433 341.812 405.593 339.613C405.593 339.613 382.545 344.143 370.311 341.581C370.311 341.581 369.717 362.281 372.288 371.722C374.859 381.163 380.364 402.075 381.348 406.41C381.551 407.376 381.664 408.358 381.685 409.344C385.181 410.65 388.972 410.957 392.633 410.231C393.91 405.798 398.315 394.54 395.94 386.296C393.378 377.431 392.394 369.541 393.174 365.995C393.954 362.449 396.525 353.38 397.314 352.396C398.103 351.412 402.243 348.682 403.82 345.916Z"></path><path fill="#7234C4" stroke="#00154A" fill-opacity="1" stroke-width="1.15613" stroke-opacity="1" color="rgb(51, 51, 51)" stroke-linecap="round" stroke-linejoin="round" id="tSvg32c7a4573e" title="Path 154" d="M384.114 420.426C383.062 419.504 382.01 418.582 380.958 417.66C380.958 417.66 371.296 422.004 370.117 422.394C368.938 422.784 370.312 423.972 372.484 424.362C374.655 424.752 390.213 425.55 391.011 423.573C391.405 422.052 391.616 420.49 391.641 418.919C389.132 419.4213 386.623 419.9237 384.114 420.426Z"></path><path fill="#7234C4" stroke="#00154A" fill-opacity="1" stroke-width="1.15613" stroke-opacity="1" color="rgb(51, 51, 51)" stroke-linecap="round" stroke-linejoin="round" id="tSvg11628c3bfc9" title="Path 155" d="M374.647 264.91C376.159 267.388 376.72 270.33 376.225 273.19C375.436 278.119 369.718 286 365.383 289.945C361.048 293.89 361.243 300.583 363.61 303.934C365.977 307.284 367.156 307.284 367.156 307.284C364.662 318.85 362.168 330.416 359.674 341.982C359.674 341.982 372.679 344.543 382.137 344.543C391.596 344.543 394.362 344.34 399.087 343.161C403.812 341.982 412.065 340.005 412.065 340.005C412.065 340.005 404.973 312.018 404.973 304.545C404.973 297.072 405.762 289.369 405.762 289.369C405.762 289.369 407.145 281.878 400.638 270.841C394.132 259.804 383.698 258.803 379.575 259.787C378.363 260.107 377.263 260.755 376.393 261.658C375.524 262.562 374.92 263.687 374.647 264.91Z"></path><path fill="none" stroke="#00154A" fill-opacity="1" stroke-width="1.15613" stroke-opacity="1" color="rgb(51, 51, 51)" stroke-linecap="round" stroke-linejoin="round" id="tSvg19329eba367" title="Path 156" d="M367.156 307.283C367.156 307.283 372.289 309.65 377.413 307.487"></path><path fill="none" stroke="#00154A" fill-opacity="1" stroke-width="1.15613" stroke-opacity="1" color="rgb(51, 51, 51)" stroke-linecap="round" stroke-linejoin="round" id="tSvg26acb57716" title="Path 157" d="M372.678 309.057C372.678 311.8847 372.678 314.7123 372.678 317.54"></path><path fill="none" stroke="#00154A" fill-opacity="1" stroke-width="1.15613" stroke-opacity="1" color="rgb(51, 51, 51)" stroke-linecap="round" stroke-linejoin="round" id="tSvg1041cc612d5" title="Path 158" d="M370.507 308.472C369.984 315.5667 369.461 322.6613 368.938 329.756"></path><path fill="white" stroke="#00154A" fill-opacity="1" stroke-width="1.15613" stroke-opacity="1" color="rgb(51, 51, 51)" stroke-linecap="round" stroke-linejoin="round" id="tSvg1ed1e19c7d" title="Path 159" d="M400.664 270.823C394.166 259.786 383.715 258.802 379.575 259.786C378.363 260.107 377.262 260.754 376.393 261.658C375.524 262.561 374.919 263.686 374.646 264.91C376.159 267.387 376.719 270.33 376.224 273.19C375.559 277.339 371.401 283.579 367.51 287.808C368.928 288.118 371.437 287.808 374.85 284.032C380.364 277.915 384.699 274.369 389.823 272.791C393.546 271.647 398.306 273.518 401.347 271.984C401.099 271.594 400.895 271.266 400.664 270.823Z"></path><path fill="white" stroke="#00154A" fill-opacity="1" stroke-width="1.15613" stroke-opacity="1" color="rgb(51, 51, 51)" stroke-linecap="round" stroke-linejoin="round" id="tSvg2bcd6a4e1c" title="Path 160" d="M367.36 240.238C367.36 240.238 365.977 244.174 366.172 246.541C366.367 248.908 367.156 250.087 365.977 252.259C364.798 254.431 362.626 255.805 363.22 256.789C363.814 257.773 366.766 258.562 366.766 258.562C366.766 258.562 367.945 265.849 369.328 266.638C370.711 267.427 379.381 263.482 381.154 262.897C382.927 262.312 385.294 257.179 383.911 249.289C382.528 241.4 373.06 236.923 367.36 240.238Z"></path><path fill="#00154A" stroke="none" fill-opacity="1" stroke-width="1" stroke-opacity="1" color="rgb(51, 51, 51)" id="tSvg8f9e36ad82" title="Path 161" d="M370.117 251.764C370.117 252.473 369.807 253.049 369.426 253.049C369.045 253.049 368.734 252.473 368.734 251.764C368.734 251.055 369.045 250.487 369.426 250.487C369.807 250.487 370.117 251.099 370.117 251.764Z"></path><path fill="none" stroke="#00154A" fill-opacity="1" stroke-width="1.15613" stroke-opacity="1" color="rgb(51, 51, 51)" stroke-linecap="round" stroke-linejoin="round" id="tSvg5f925fe198" title="Path 162" d="M368.148 248.554C368.148 248.554 370.506 246.976 371.694 249.538"></path><path fill="#00154A" stroke="#00154A" fill-opacity="1" stroke-width="1.15613" stroke-opacity="1" color="rgb(51, 51, 51)" stroke-linecap="round" stroke-linejoin="round" id="tSvg14e7054e749" title="Path 163" d="M364.088 237.943C363.83 238.256 363.696 238.653 363.712 239.059C363.729 239.465 363.894 239.85 364.177 240.141C365.723 241.771 367.519 243.144 369.496 244.21C373.042 245.983 377.776 248.944 377.776 252.295C377.776 255.646 375.808 265.3 377.776 268.651C379.744 272.002 385.071 275.158 388.227 275.556C391.383 275.955 395.913 279.297 397.092 284.82C398.271 290.343 400.08 297.435 406.746 296.087C413.412 294.74 414.822 285.246 412.065 280.911C409.308 276.576 406.746 276.381 408.909 271.647C411.072 266.913 409.698 260.61 404.964 256.665C400.23 252.721 396.489 254.892 396.099 250.159C395.709 245.425 394.06 238.838 390.577 234.202C386.614 228.83 372.51 227.544 364.088 237.943Z"></path><path fill="white" stroke="#00154A" fill-opacity="1" stroke-width="1.15613" stroke-opacity="1" color="rgb(51, 51, 51)" stroke-linecap="round" stroke-linejoin="round" id="tSvg905a0b68b0" title="Path 164" d="M382.332 333.896C382.332 333.896 381.348 344.933 380.559 346.112C379.77 347.291 376.419 350.252 375.834 351.635C375.249 353.018 376.605 358.142 376.605 358.142C376.605 358.142 377.784 359.321 378.768 358.931C379.752 358.541 379.362 357.743 379.362 357.743C379.362 357.743 378.768 356.564 379.362 356.165C379.956 355.766 382.314 355.181 383.103 353.213C383.631 351.807 384.028 350.356 384.291 348.878C385.934 344.475 387.577 340.072 389.22 335.669C386.924 335.078 384.628 334.487 382.332 333.896Z"></path><path fill="#7234C4" stroke="none" fill-opacity="1" stroke-width="1" stroke-opacity="1" color="rgb(51, 51, 51)" id="tSvg1857bada605" title="Path 165" d="M378.787 288.995C378.787 288.995 378.397 299.039 378.982 303.179C379.567 307.319 379.975 319.544 378.787 324.269C377.599 328.994 378.397 335.314 378.397 335.314C378.397 335.314 384.7 338.266 387.856 337.876C391.012 337.486 393.175 337.087 393.175 337.087C393.175 337.087 396.721 321.707 397.315 314.81C397.909 307.913 396.526 286.229 396.526 286.229"></path><path fill="none" stroke="#00154A" fill-opacity="1" stroke-width="1.15613" stroke-opacity="1" color="rgb(51, 51, 51)" stroke-linecap="round" stroke-linejoin="round" id="tSvg16b56078bb2" title="Path 166" d="M378.787 288.995C378.787 288.995 378.397 299.039 378.982 303.179C379.567 307.319 379.975 319.544 378.787 324.269C377.599 328.994 378.397 335.314 378.397 335.314C378.397 335.314 384.7 338.266 387.856 337.876C391.012 337.486 393.175 337.087 393.175 337.087C393.175 337.087 396.721 321.707 397.315 314.81C397.909 307.913 396.526 286.229 396.526 286.229"></path><path fill="#7234C4" stroke="#00154A" fill-opacity="1" stroke-width="1.15613" stroke-opacity="1" color="rgb(51, 51, 51)" stroke-linecap="round" stroke-linejoin="round" id="tSvg15305bb38ee" title="Path 167" d="M299.222 281.089C291.4623 281.089 283.7027 281.089 275.943 281.089C275.943 289.6377 275.943 298.1863 275.943 306.735C283.7027 306.735 291.4623 306.735 299.222 306.735C299.222 298.1863 299.222 289.6377 299.222 281.089Z"></path><path fill="white" stroke="none" fill-opacity="1" stroke-width="1" stroke-opacity="1" color="rgb(51, 51, 51)" id="tSvg759901fc85" title="Path 168" d="M289.7 302.944C294.261 301.871 297.089 297.305 296.017 292.744C294.945 288.182 290.378 285.354 285.817 286.427C281.256 287.499 278.428 292.066 279.5 296.627C280.572 301.188 285.139 304.016 289.7 302.944Z"></path><path fill="none" stroke="#00154A" fill-opacity="1" stroke-width="1.15613" stroke-opacity="1" color="rgb(51, 51, 51)" stroke-linecap="round" stroke-linejoin="round" id="tSvg15867abdcd8" title="Path 169" d="M282.291 290.379C282.291 290.379 282.38 287.959 280.961 287.543C279.543 287.126 279.96 293.624 281.289 296.789"></path><path fill="white" stroke="#00154A" fill-opacity="1" stroke-width="1.15613" stroke-opacity="1" color="rgb(51, 51, 51)" stroke-linecap="round" stroke-linejoin="round" id="tSvgac5724ec71" title="Path 170" d="M237.151 256.737C235.766 258.945 234.543 261.25 233.49 263.634C232.604 266.001 231.762 269.884 231.762 269.884C229.1023 268.5187 226.4427 267.1533 223.783 265.788C225.5057 261.261 227.2283 256.734 228.951 252.207C231.6843 253.717 234.4177 255.227 237.151 256.737Z"></path><path fill="#00154A" stroke="#00154A" fill-opacity="1" stroke-width="1.15613" stroke-opacity="1" color="rgb(51, 51, 51)" stroke-linecap="round" stroke-linejoin="round" id="tSvg2da04960e0" title="Path 171" d="M244.696 236.047C244.696 236.047 247.932 237.128 249.226 233.245C250.52 229.362 245.556 225.701 238.659 223.76C231.762 221.818 220.584 228.503 218.403 233.68C216.222 238.857 218.19 244.45 215.389 248.333C212.588 252.216 202.455 253.076 201.374 263.403C200.292 273.731 206.763 277.587 205.256 281.284C203.749 284.981 197.5 287.108 198.572 295.299C199.645 303.49 211.719 307.799 217.109 304.563C222.499 301.327 224.44 294.431 222.711 286.027C220.983 277.623 220.132 269.006 224.653 265.77C229.174 262.535 234.351 256.285 234.785 253.271C235.22 250.257 234.138 249.61 236.727 248.741C239.315 247.872 244.049 242.084 244.696 236.047Z"></path><path fill="#00154A" stroke="none" fill-opacity="1" stroke-width="1" stroke-opacity="1" color="rgb(51, 51, 51)" id="tSvg1b78d93fe3" title="Path 172" d="M228.864 324.739C228.864 324.739 231.94 344.242 232.968 357.282C233.997 370.322 232.596 379.834 232.968 387.768C233.38 397.307 234.408 406.809 236.045 416.216C236.045 416.216 245.796 420.311 247.055 421.083C248.313 421.854 250.131 421.854 250.131 422.856C250.131 423.857 242.746 425.692 238.314 423.902C236.124 423.015 230.885 424.159 228.563 423.13C227.082 422.474 228.563 418.521 228.563 415.959C228.563 413.397 224.254 399.807 223.244 393.406C222.233 387.006 221.196 384.958 221.967 380.34C222.477 377.029 222.82 373.694 222.995 370.349C222.995 370.349 215.478 341.831 214.131 337.771C213.267 335.178 212.553 332.538 211.994 329.863"></path><path fill="none" stroke="#00154A" fill-opacity="1" stroke-width="1.15613" stroke-opacity="1" color="rgb(51, 51, 51)" stroke-linecap="round" stroke-linejoin="round" id="tSvg5dba2573fc" title="Path 173" d="M228.864 324.739C228.864 324.739 231.94 344.242 232.968 357.282C233.997 370.322 232.596 379.834 232.968 387.768C233.38 397.307 234.408 406.809 236.045 416.216C236.045 416.216 245.796 420.311 247.055 421.083C248.313 421.854 250.131 421.854 250.131 422.856C250.131 423.857 242.746 425.692 238.314 423.902C236.124 423.015 230.885 424.159 228.563 423.13C227.082 422.474 228.563 418.521 228.563 415.959C228.563 413.397 224.254 399.807 223.244 393.406C222.233 387.006 221.196 384.958 221.967 380.34C222.477 377.029 222.82 373.694 222.995 370.349C222.995 370.349 215.478 341.831 214.131 337.771C213.267 335.178 212.553 332.538 211.994 329.863"></path><path fill="white" stroke="#00154A" fill-opacity="1" stroke-width="1.15613" stroke-opacity="1" color="rgb(51, 51, 51)" stroke-linecap="round" stroke-linejoin="round" id="tSvg7dc420ce90" title="Path 174" d="M247.053 421.083C245.776 420.312 236.043 416.216 236.043 416.216C236.043 416.216 235.085 411.225 234.199 403.291C231.682 404.687 228.767 405.19 225.928 404.718C227.284 409.78 228.587 414.541 228.587 415.959C228.587 418.521 227.107 422.475 228.587 423.131C230.901 424.159 236.14 422.998 238.339 423.902C242.691 425.675 250.12 423.902 250.12 422.873C250.12 421.845 248.338 421.854 247.053 421.083Z"></path><path fill="white" stroke="#00154A" fill-opacity="1" stroke-width="1.15613" stroke-opacity="1" color="rgb(51, 51, 51)" stroke-linecap="round" stroke-linejoin="round" id="tSvg9b56e5d122" title="Path 175" d="M228.42 417.971C228.074 420.223 227.48 422.634 228.606 423.13C230.92 424.159 236.159 422.997 238.357 423.901C242.71 425.674 250.139 423.901 250.139 422.873C250.139 421.845 248.366 421.854 247.063 421.1C245.76 420.347 236.053 416.233 236.053 416.233C235.707 417.2587 235.361 418.2843 235.015 419.31C232.8167 418.8637 230.6183 418.4173 228.42 417.971Z"></path><path fill="#00154A" stroke="#00154A" fill-opacity="1" stroke-width="1.15613" stroke-opacity="1" color="rgb(51, 51, 51)" stroke-linecap="round" stroke-linejoin="round" id="tSvg63e3a8c497" title="Path 176" d="M222.934 261.905C224.373 261.643 225.851 261.7 227.265 262.072C228.679 262.444 229.994 263.123 231.117 264.06C235.212 267.295 236.081 272.685 239.529 278.075C242.978 283.465 243.403 288.199 242.109 291.222C240.815 294.244 236.728 303.934 234.565 309.971C232.402 316.008 231.551 325.706 230.257 332.133C228.963 338.56 218.192 339.03 214.096 337.735C210.001 336.441 205.728 331.051 205.293 323.942C204.859 316.832 208.529 313.623 209.398 311.894C210.267 310.166 219.264 296.354 217.11 289.457C214.956 282.561 215.816 274.387 217.332 270.283C218.848 266.178 221.64 262.553 222.934 261.905Z"></path><path fill="#7234C4" stroke="#00154A" fill-opacity="1" stroke-width="1.15613" stroke-opacity="1" color="rgb(51, 51, 51)" stroke-linecap="round" stroke-linejoin="round" id="tSvg67894d660f" title="Path 177" d="M231.115 264.06C229.993 263.123 228.678 262.444 227.264 262.072C225.85 261.7 224.371 261.643 222.933 261.905C221.639 262.553 218.838 266.223 217.331 270.318C215.824 274.414 214.955 282.596 217.109 289.493C219.263 296.39 210.256 310.21 209.396 311.93C209.396 311.93 215.744 318.871 232.445 318.898C232.917 315.87 233.632 312.884 234.582 309.971C236.745 303.934 240.787 294.236 242.126 291.222C243.464 288.208 243.012 283.456 239.546 278.075C236.08 272.694 235.211 267.295 231.115 264.06Z"></path><path fill="white" stroke="#00154A" fill-opacity="1" stroke-width="1.15613" stroke-opacity="1" color="rgb(51, 51, 51)" stroke-linecap="round" stroke-linejoin="round" id="tSvgbc0b211ab" title="Path 178" d="M272.93 298.978C262.1533 300.0567 251.3767 301.1353 240.6 302.214C240.6 302.214 238.011 301.567 237.364 300.272C236.832 299.2 226.62 281.904 223.18 276.089C222.04 274.233 221.56 272.047 221.815 269.884C222.107 267.729 223.242 265.575 226.584 265.575C232.009 265.575 236.096 273.74 237.435 276.798C237.905 277.871 238.419 278.917 238.96 279.954C240.7327 283.3493 242.5053 286.7447 244.278 290.14C254.266 291.3603 264.254 292.5807 274.242 293.801C274.242 293.801 279.197 290.787 280.057 290.352C280.917 289.918 283.718 289.714 285.234 289.466C286.75 289.218 287.814 287.959 287.814 289.253C287.814 290.548 286.741 290.76 286.094 290.973C285.0153 291.3337 283.9367 291.6943 282.858 292.055C285.5177 292.705 288.1773 293.355 290.837 294.005C291.065 294.052 291.266 294.187 291.396 294.381C291.525 294.576 291.573 294.813 291.528 295.042C291.514 295.158 291.477 295.27 291.419 295.372C291.362 295.473 291.284 295.562 291.192 295.634C291.1 295.706 290.994 295.758 290.882 295.789C290.769 295.82 290.651 295.828 290.535 295.813C288.6233 295.63 286.7117 295.447 284.8 295.264C286.6053 296.1357 288.4107 297.0073 290.216 297.879C290.411 297.983 290.56 298.156 290.634 298.364C290.707 298.573 290.701 298.801 290.615 299.005C290.529 299.178 290.39 299.318 290.217 299.405C290.044 299.491 289.848 299.519 289.658 299.483C287.752 299.0693 285.846 298.6557 283.94 298.242C285.3613 299.0577 286.7827 299.8733 288.204 300.689C288.523 300.9843 288.842 301.2797 289.161 301.575C288.842 302.958 287.441 302.169 286.679 301.815C285.5177 301.274 284.3563 300.733 283.195 300.192C284.191 301.2913 285.187 302.3907 286.183 303.49C285.226 303.474 284.298 303.164 283.523 302.604C282.4357 301.8267 281.3483 301.0493 280.261 300.272C278.4527 299.7403 276.6443 299.2087 274.836 298.677C274.2007 298.7773 273.5653 298.8777 272.93 298.978Z"></path><path fill="#7234C4" stroke="#00154A" fill-opacity="1" stroke-width="1.15613" stroke-opacity="1" color="rgb(51, 51, 51)" stroke-linecap="round" stroke-linejoin="round" id="tSvg17cab3941ba" title="Path 179" d="M239.492 280.965C239.3177 280.628 239.1433 280.291 238.969 279.954C238.429 278.917 237.914 277.871 237.445 276.798C236.106 273.731 232.019 265.575 226.594 265.575C223.252 265.575 222.117 267.729 221.825 269.884C221.569 272.047 222.05 274.233 223.19 276.089C225.2053 279.505 227.2207 282.921 229.236 286.337C232.6547 284.5463 236.0733 282.7557 239.492 280.965Z"></path><path fill="#00154A" stroke="none" fill-opacity="1" stroke-width="1" stroke-opacity="1" color="rgb(51, 51, 51)" id="tSvgbcaf592a6f" title="Path 180" d="M209.397 328.587C209.397 328.587 209.397 340.368 210.417 350.616C211.436 360.864 211.702 372.397 210.674 374.197C209.645 375.996 204.53 384.958 203.502 389.311C202.474 393.664 201.729 411.854 200.169 415.959C198.609 420.063 198.121 422.874 199.149 423.388C200.178 423.902 212.544 424.469 215.204 424.788C217.863 425.107 221.099 424.283 221.17 423.228C221.241 422.173 216.516 420.4 212.668 417.688C208.821 414.975 209.122 411.597 209.122 409.035C209.122 406.474 215.017 390.588 219.884 379.063C224.751 367.539 229.104 338.835 229.104 334.225C229.104 331.663 229.104 329.101 229.104 326.539"></path><path fill="none" stroke="#00154A" fill-opacity="1" stroke-width="1.15613" stroke-opacity="1" color="rgb(51, 51, 51)" stroke-linecap="round" stroke-linejoin="round" id="tSvg3976b69271" title="Path 181" d="M209.397 328.587C209.397 328.587 209.397 340.368 210.417 350.616C211.436 360.864 211.702 372.397 210.674 374.197C209.645 375.996 204.53 384.958 203.502 389.311C202.474 393.664 201.729 411.854 200.169 415.959C198.609 420.063 198.121 422.874 199.149 423.388C200.178 423.902 212.544 424.469 215.204 424.788C217.863 425.107 221.099 424.283 221.17 423.228C221.241 422.173 216.516 420.4 212.668 417.688C208.821 414.975 209.122 411.597 209.122 409.035C209.122 406.474 215.017 390.588 219.884 379.063C224.751 367.539 229.104 338.835 229.104 334.225C229.104 331.663 229.104 329.101 229.104 326.539"></path><path fill="white" stroke="#00154A" fill-opacity="1" stroke-width="1.15613" stroke-opacity="1" color="rgb(51, 51, 51)" stroke-linecap="round" stroke-linejoin="round" id="tSvg15edce0ee5b" title="Path 182" d="M212.666 417.687C208.81 414.974 209.12 411.597 209.12 409.035C209.183 408.298 209.323 407.57 209.536 406.863C206.867 406.874 204.223 406.346 201.762 405.312C201.31 409.966 200.796 414.221 200.149 415.949C198.615 420.045 198.101 422.864 199.129 423.378C200.157 423.892 212.524 424.46 215.183 424.779C217.843 425.098 221.079 424.273 221.149 423.219C221.22 422.164 216.513 420.4 212.666 417.687Z"></path><path fill="white" stroke="#00154A" fill-opacity="1" stroke-width="1.15613" stroke-opacity="1" color="rgb(51, 51, 51)" stroke-linecap="round" stroke-linejoin="round" id="tSvg56d89e769a" title="Path 183" d="M221.169 423.228C221.249 422.173 216.515 420.4 212.668 417.688C211.3 416.798 210.251 415.498 209.671 413.973C209.198 413.962 208.737 414.119 208.368 414.416C207.34 415.445 207.092 418.521 207.092 418.521C204.6807 417.9597 202.2693 417.3983 199.858 416.837C198.572 420.453 198.2 422.909 199.149 423.388C200.097 423.866 212.544 424.469 215.203 424.788C217.862 425.107 221.098 424.283 221.169 423.228Z"></path><path fill="white" stroke="#00154A" fill-opacity="1" stroke-width="1.15613" stroke-opacity="1" color="rgb(51, 51, 51)" stroke-linecap="round" stroke-linejoin="round" id="tSvgccd74ce827" title="Path 184" d="M243.403 232.386C243.403 232.386 246.204 236.694 246.204 239.061C246.204 241.428 245.557 243.378 245.557 244.885C245.557 246.392 248.509 248.253 248.509 249.548C248.509 250.237 247.622 251.321 246.292 252.207C245.113 255.31 244.224 257.106 243.624 257.81C242.339 259.317 241.036 260.833 238.66 260.611C236.284 260.39 229.795 254.149 229.795 254.149C229.795 254.149 226.559 256.525 225.478 252.642C224.396 248.759 224.405 246.827 226.125 246.392C226.628 246.273 227.155 246.293 227.648 246.449C228.141 246.605 228.583 246.892 228.926 247.279C228.926 247.279 237.33 246.853 240.14 242.11C241.872 239.122 242.982 235.814 243.403 232.386Z"></path><path fill="#00154A" stroke="none" fill-opacity="1" stroke-width="1" stroke-opacity="1" color="rgb(51, 51, 51)" id="tSvgd39bfdcf92" title="Path 185" d="M243.533 245.104C243.511 245.807 243.267 246.381 242.982 246.373C242.697 246.364 242.485 245.78 242.497 245.069C242.509 244.358 242.772 243.782 243.048 243.8C243.325 243.819 243.553 244.383 243.533 245.104Z"></path><path fill="#00154A" stroke="none" fill-opacity="1" stroke-width="1" stroke-opacity="1" color="rgb(51, 51, 51)" id="tSvg1098eb7bc0c" title="Path 186" d="M241.046 243.012C240.909 242.9 240.822 242.739 240.803 242.563C240.785 242.388 240.838 242.212 240.949 242.075C241.369 241.523 241.931 241.097 242.575 240.84C243.219 240.584 243.921 240.507 244.605 240.619C244.777 240.657 244.927 240.761 245.022 240.909C245.117 241.057 245.15 241.237 245.113 241.409C245.075 241.581 244.97 241.731 244.822 241.826C244.674 241.921 244.494 241.953 244.322 241.916C243.879 241.863 243.429 241.927 243.019 242.102C242.608 242.278 242.251 242.558 241.983 242.915C241.871 243.052 241.71 243.139 241.534 243.157C241.358 243.176 241.183 243.123 241.046 243.012Z"></path><path fill="#00154A" stroke="none" fill-opacity="1" stroke-width="1" stroke-opacity="1" color="rgb(51, 51, 51)" id="tSvg1745cd7cc0e" title="Path 187" d="M241.154 254.196C240.943 254.049 240.742 253.886 240.555 253.708C240.494 253.645 240.446 253.57 240.413 253.488C240.381 253.406 240.365 253.319 240.367 253.231C240.368 253.143 240.387 253.056 240.422 252.975C240.457 252.894 240.508 252.821 240.571 252.76C240.634 252.699 240.709 252.651 240.791 252.618C240.873 252.586 240.96 252.57 241.048 252.571C241.136 252.573 241.223 252.592 241.304 252.627C241.385 252.662 241.458 252.712 241.519 252.776C243.269 254.593 244.695 253.641 244.705 253.65C244.855 253.544 245.041 253.502 245.222 253.533C245.402 253.564 245.563 253.666 245.669 253.815C245.775 253.965 245.817 254.151 245.786 254.332C245.755 254.512 245.653 254.673 245.503 254.779C244.814 255.169 244.016 255.323 243.231 255.218C242.446 255.112 241.717 254.753 241.154 254.196Z"></path><path fill="white" stroke="#00154A" fill-opacity="1" stroke-width="1.15613" stroke-opacity="1" color="rgb(51, 51, 51)" stroke-linecap="round" stroke-linejoin="round" id="tSvg944d44ec2a" title="Path 188" d="M325.669 414.309C325.669 414.309 316.45 419.539 313.923 420.753C311.397 421.968 309.712 422.916 314.313 424.184C318.914 425.452 331.812 424.565 333.967 424.45C336.121 424.335 337.016 424.938 336.892 422.571C336.768 420.204 336.892 414.371 336.892 414.371C336.892 414.371 326.963 414.876 325.669 414.309Z"></path><path fill="#00154A" stroke="#00154A" fill-opacity="1" stroke-width="1.15613" stroke-opacity="1" color="rgb(51, 51, 51)" stroke-linecap="round" stroke-linejoin="round" id="tSvge9d45c112" title="Path 189" d="M326.377 273.871C326.377 273.871 319.693 285.724 319.48 288.942C319.267 292.16 319.267 293.897 319.267 293.897C319.267 293.897 314.09 306.184 312.371 312.646C310.651 319.109 313.665 328.381 314.959 331.396C316.253 334.41 317.76 337.22 317.76 337.22C317.76 337.22 320.127 361.155 320.34 368.247C320.553 375.339 322.929 385.09 323.788 391.517C324.648 397.944 326.811 408.981 326.811 408.981C326.811 408.981 324.436 410.488 324.436 411.561C324.436 412.633 324.223 414.796 324.223 414.796C325.705 414.94 327.157 415.304 328.531 415.878C331.554 416.95 337.396 416.09 337.396 416.09C338.096 412.028 338.528 407.923 338.69 403.804C338.69 399.061 340.41 384.62 339.763 379.665C339.116 374.709 338.478 366.518 338.69 365.481C338.903 364.444 341.057 342.432 341.057 342.432C344.249 337.806 345.976 332.327 346.013 326.706C346.013 317.433 345.587 315.492 345.587 315.492C345.587 315.492 347.954 287.692 346.881 277.994C345.809 268.295 340.605 265.946 340.605 265.946C335.8623 268.5877 331.1197 271.2293 326.377 273.871Z"></path><path fill="white" stroke="#00154A" fill-opacity="1" stroke-width="1.15613" stroke-opacity="1" color="rgb(51, 51, 51)" stroke-linecap="round" stroke-linejoin="round" id="tSvg8a63ca8efa" title="Path 190" d="M346.855 277.967C345.773 268.269 340.605 265.902 340.605 265.902C335.8623 268.5617 331.1197 271.2213 326.377 273.881C326.377 273.881 319.693 285.733 319.48 288.951C319.268 292.169 319.268 293.906 319.268 293.906C319.268 293.906 314.09 306.193 312.371 312.656C311.932 314.441 311.765 316.282 311.874 318.116C314.356 320.049 319.853 323.01 329.826 322.549C338.345 322.168 343.212 319.889 345.782 318.072C345.751 317.181 345.668 316.294 345.534 315.413C345.534 315.413 347.928 287.666 346.855 277.967Z"></path><path fill="white" stroke="#00154A" fill-opacity="1" stroke-width="1.15613" stroke-opacity="1" color="rgb(51, 51, 51)" stroke-linecap="round" stroke-linejoin="round" id="tSvg135c21d5e94" title="Path 191" d="M323.576 227.756C323.576 227.756 315.385 231.417 314.525 235.735C313.665 240.052 315.172 246.514 315.172 247.587C315.172 248.66 312.158 251.683 313.231 252.542C313.525 252.794 313.869 252.982 314.24 253.093C314.611 253.205 315.001 253.237 315.385 253.19C316.31 255.698 317.391 258.147 318.621 260.521C318.96 261.179 319.493 261.717 320.147 262.064C320.802 262.411 321.546 262.55 322.282 262.462C322.929 262.462 325.305 262.028 325.305 262.028C326.2387 264.7583 327.1723 267.4887 328.106 270.219C331.4807 267.5597 334.8553 264.9003 338.23 262.241C338.23 262.241 336.51 257.507 337.343 254.918C338.177 252.33 342.299 248.021 342.946 241.772C343.593 235.522 337.556 227.765 332.388 226.896C329.428 226.356 326.376 226.654 323.576 227.756Z"></path><path fill="#7E919C" stroke="#00154A" fill-opacity="1" stroke-width="1.15613" stroke-opacity="1" color="rgb(51, 51, 51)" stroke-linecap="round" stroke-linejoin="round" id="tSvgbcae612b5e" title="Path 192" d="M332.415 226.888C329.436 226.345 326.364 226.653 323.55 227.774C323.55 227.774 322.823 228.102 321.777 228.661C323.55 227.916 326.6 227.109 327.203 230.141C328.089 234.45 322.469 237.233 323.329 239.192C324.189 241.151 327.424 241.781 328.284 244.148C329.144 246.515 330.226 247.596 331.085 246.523C331.945 245.451 331.52 243.288 333.027 242.853C334.534 242.419 336.715 245.646 336.715 248.217C336.715 250.787 333.913 251.887 333.913 251.887C334.315 252.505 334.855 253.021 335.49 253.395C336.126 253.769 336.839 253.99 337.575 254.041C337.628 254.036 337.681 254.036 337.734 254.041C339.037 251.381 342.388 247.357 342.964 241.754C343.62 235.513 337.601 227.757 332.415 226.888Z"></path><path fill="#7E919C" stroke="#00154A" fill-opacity="1" stroke-width="1.15613" stroke-opacity="1" color="rgb(51, 51, 51)" stroke-linecap="round" stroke-linejoin="round" id="tSvg13cceee4fea" title="Path 193" d="M315.385 253.181C315.385 253.181 322.282 251.248 324.25 252.108C326.218 252.968 323.363 255.344 321.014 255.769C318.665 256.195 315.385 256.629 315.385 253.181Z"></path><path fill="#00154A" stroke="none" fill-opacity="1" stroke-width="1" stroke-opacity="1" color="rgb(51, 51, 51)" id="tSvg4615d7e0f2" title="Path 194" d="M319.054 245.859C319.054 246.807 318.762 247.579 318.407 247.579C318.052 247.579 317.76 246.807 317.76 245.859C317.76 244.91 318.043 244.086 318.407 244.086C318.77 244.086 319.054 244.902 319.054 245.859Z"></path><path fill="none" stroke="#00154A" fill-opacity="1" stroke-width="1.15613" stroke-opacity="1" color="rgb(51, 51, 51)" stroke-linecap="round" stroke-linejoin="round" id="tSvg8510bb0b80" title="Path 195" d="M316.68 242.41C317.17 241.991 317.803 241.778 318.447 241.818C319.091 241.858 319.694 242.147 320.128 242.623"></path><path fill="none" stroke="#00154A" fill-opacity="1" stroke-width="1.15613" stroke-opacity="1" color="rgb(51, 51, 51)" stroke-linecap="round" stroke-linejoin="round" id="tSvgfbc7f97a18" title="Path 196" d="M325.303 262.019C325.303 262.019 330.684 260.725 332.838 256.204"></path><path fill="white" stroke="#00154A" fill-opacity="1" stroke-width="1.15613" stroke-opacity="1" color="rgb(51, 51, 51)" stroke-linecap="round" stroke-linejoin="round" id="tSvg13243672d42" title="Path 197" d="M324.01 271.266C324.5123 272.8437 325.0147 274.4213 325.517 275.999C331.1313 272.5507 336.7457 269.1023 342.36 265.654C341.713 263.6447 341.066 261.6353 340.419 259.626C340.419 259.626 325.517 268.491 324.01 271.266Z"></path><path fill="white" stroke="#00154A" fill-opacity="1" stroke-width="1.15613" stroke-opacity="1" color="rgb(51, 51, 51)" stroke-linecap="round" stroke-linejoin="round" id="tSvg52462f481a" title="Path 198" d="M330.685 305.342C330.685 305.342 313.018 306.415 309.135 306.415C306.293 306.314 303.472 305.879 300.731 305.121C300.731 305.121 298.577 302.107 297.717 301.247C296.857 300.387 294.916 300.165 292.974 300.165C291.033 300.165 289.313 299.279 289.313 300.6C289.313 301.92 290.2 301.894 291.033 302.319C291.896 302.7507 292.759 303.1823 293.622 303.614C293.622 303.614 287.15 303.835 286.29 303.835C285.43 303.835 283.489 302.541 283.702 304.261C283.914 305.98 285.43 306.202 286.937 306.202C288.444 306.202 293.4 308.569 294.916 308.569C296.432 308.569 300.297 308.791 300.297 308.791C300.297 308.791 309.162 310.51 314.959 312.886C320.757 315.262 334.356 316.113 335.863 315.04C337.37 313.968 337.6 305.342 337.6 305.342C335.295 305.342 332.99 305.342 330.685 305.342Z"></path><path fill="white" stroke="none" fill-opacity="1" stroke-width="1" stroke-opacity="1" color="rgb(51, 51, 51)" id="tSvg7a4de5ce25" title="Path 199" d="M328.106 285.085C327.6007 291.7073 327.0953 298.3297 326.59 304.952C328.501 306.422 330.864 307.183 333.274 307.106C336.179 307.054 339.07 306.695 341.899 306.033C341.899 306.033 343.407 285.99 342.538 281.894C341.669 277.798 340.818 277.151 338.877 277.151"></path><path fill="none" stroke="#00154A" fill-opacity="1" stroke-width="1.15613" stroke-opacity="1" color="rgb(51, 51, 51)" stroke-linecap="round" stroke-linejoin="round" id="tSvg143fffb7245" title="Path 200" d="M328.106 285.085C327.6007 291.7073 327.0953 298.3297 326.59 304.952C328.501 306.422 330.864 307.183 333.274 307.106C336.179 307.054 339.07 306.695 341.899 306.033C341.899 306.033 343.407 285.99 342.538 281.894C341.669 277.798 340.818 277.151 338.877 277.151"></path><path fill="white" stroke="#00154A" fill-opacity="1" stroke-width="1.15613" stroke-opacity="1" color="rgb(51, 51, 51)" stroke-linecap="round" stroke-linejoin="round" id="tSvgae0954fd8e" title="Path 201" d="M133.229 413.812C133.229 413.812 122.822 419.229 120.251 420.497C117.68 421.764 115.969 422.775 120.659 424.131C125.348 425.488 138.495 424.566 140.685 424.45C142.874 424.335 143.796 424.973 143.663 422.465C143.53 419.956 143.22 414.965 143.22 414.965C143.22 414.965 134.594 414.433 133.229 413.812Z"></path><path fill="white" stroke="#00154A" fill-opacity="1" stroke-width="1.15613" stroke-opacity="1" color="rgb(51, 51, 51)" stroke-linecap="round" stroke-linejoin="round" id="tSvg598126ce26" title="Path 202" d="M179.248 412.669C178.536 414.625 177.602 416.493 176.464 418.236C174.993 420.204 170.729 422.669 170.729 423.644C170.729 423.972 170.729 424.3 170.729 424.628C176.3817 424.628 182.0343 424.628 187.687 424.628C187.687 424.628 189.566 423.147 189.566 421.968C189.566 420.789 188.582 413.617 188.582 413.617C185.4707 413.301 182.3593 412.985 179.248 412.669Z"></path><path fill="#00154A" stroke="#00154A" fill-opacity="1" stroke-width="1.15613" stroke-opacity="1" color="rgb(51, 51, 51)" stroke-linecap="round" stroke-linejoin="round" id="tSvg5db54b1611" title="Path 203" d="M144.205 322.762C144.205 322.762 140.766 333.577 137.654 344.543C134.543 355.508 130.775 368.478 130.119 373.859C129.463 379.24 133.887 409.717 133.887 409.717C133.527 409.943 133.232 410.259 133.032 410.634C132.831 411.008 132.732 411.429 132.743 411.853C132.803 412.528 132.968 413.189 133.231 413.813C133.231 413.813 138.798 415.293 140.269 415.293C141.262 415.278 142.25 415.168 143.221 414.965C143.221 414.965 144.037 383.051 144.037 379.266C144.076 377.402 143.966 375.537 143.709 373.69C148.4693 362.5113 153.2297 351.3327 157.99 340.154C158.853 340.361 159.716 340.568 160.579 340.775C160.579 340.775 163.034 370.915 163.69 374.515C164.346 378.114 178.264 409.088 178.264 409.088C178.264 409.088 177.777 411.543 178.264 412.687C178.525 413.2 178.694 413.755 178.761 414.327C180.099 414.651 181.471 414.815 182.847 414.814C184.799 414.675 186.726 414.291 188.583 413.671C188.583 413.671 188.255 411.375 187.767 409.088C187.224 406.985 186.567 404.914 185.799 402.882C183.178 392.2443 180.557 381.6067 177.936 370.969C177.936 370.969 180.596 330.855 180.392 326.76C180.236 324.073 179.686 321.424 178.761 318.896C178.761 318.896 158.611 327.513 144.205 322.762Z"></path><path fill="white" stroke="#00154A" fill-opacity="1" stroke-width="1.15613" stroke-opacity="1" color="rgb(51, 51, 51)" stroke-linecap="round" stroke-linejoin="round" id="tSvg401095df05" title="Path 204" d="M142.094 268.66C142.094 268.66 133.584 268.234 129.32 271C125.056 273.766 124.639 283.349 124.001 284.625C123.363 285.902 119.32 302.506 118.895 304.855C118.469 307.204 122.725 311.876 124.427 310.812C126.129 309.748 133.159 291.655 133.159 291.655C133.159 291.655 143.371 310.395 144.222 312.31C145.073 314.225 143.796 324.446 143.796 324.446C143.796 324.446 146.146 328.879 157.431 328.489C168.715 328.098 179.593 322.106 179.593 322.106C179.593 322.106 177.678 310.395 177.252 308.055C176.827 305.715 175.55 284.847 173.21 276.753C170.87 268.66 166.18 265.681 162.572 265.681C158.305 265.648 154.04 265.861 149.798 266.319C147.19 266.962 144.619 267.743 142.094 268.66Z"></path><path fill="white" stroke="#00154A" fill-opacity="1" stroke-width="1.15613" stroke-opacity="1" color="rgb(51, 51, 51)" stroke-linecap="round" stroke-linejoin="round" id="tSvg54382a14c1" title="Path 205" d="M137.414 269.936C137.414 269.936 145.508 281.647 147.635 282.498C149.763 283.349 152.954 269.936 152.954 269.936C152.3867 266.6 151.8193 263.264 151.252 259.928C151.252 259.928 142.095 261.417 138.265 263.119C134.436 264.821 137.414 269.936 137.414 269.936Z"></path><path fill="white" stroke="none" fill-opacity="1" stroke-width="1" stroke-opacity="1" color="rgb(51, 51, 51)" id="tSvg16ecd6516b7" title="Path 206" d="M131.539 260.199C133.054 262.68 134.436 265.24 135.679 267.867C136.486 269.986 137.195 271.909 141.237 273.727C145.28 275.544 147.593 275.136 148.905 273.824C150.217 272.512 151.831 266.856 152.035 265.341C152.239 263.825 151.148 260.598 151.148 260.598C151.148 260.598 152.965 258.825 152.965 256.963C152.965 255.102 151.042 252.318 151.042 252.318C151.042 252.318 148.719 250.102 146.202 250.199C143.684 250.297 135.191 253.125 133.48 255.518C132.462 256.897 131.795 258.504 131.539 260.199Z"></path><path fill="#00154A" stroke="none" fill-opacity="1" stroke-width="1" stroke-opacity="1" color="rgb(51, 51, 51)" id="tSvg72a8ce85c5" title="Path 207" d="M145.954 275.393C144.261 275.315 142.604 274.883 141.087 274.126C136.912 272.246 136.141 270.216 135.316 268.071C134.078 265.45 132.702 262.896 131.194 260.421C131.147 260.341 131.125 260.248 131.132 260.155C131.396 258.397 132.084 256.73 133.136 255.297C134.971 252.699 143.711 249.854 146.202 249.756C148.862 249.641 151.273 251.902 151.371 251.999C151.3917 252.0227 151.4123 252.0463 151.433 252.07C151.513 252.194 153.427 255.031 153.427 256.963C153.269 258.375 152.645 259.695 151.654 260.713C151.911 261.52 152.674 264.046 152.497 265.403C152.293 266.927 150.653 272.725 149.234 274.143C148.801 274.564 148.287 274.892 147.723 275.107C147.159 275.322 146.557 275.419 145.954 275.393ZM132.036 260.146C133.54 262.604 134.907 265.143 136.132 267.752C136.93 269.862 137.612 271.635 141.451 273.363C144.828 274.879 147.24 274.95 148.631 273.558C149.837 272.344 151.433 266.803 151.637 265.332C151.787 264.179 151.043 261.662 150.75 260.784C150.724 260.706 150.721 260.623 150.739 260.543C150.758 260.463 150.799 260.39 150.857 260.332C150.857 260.332 152.55 258.621 152.55 257.008C152.55 255.394 150.963 253.001 150.732 252.655C150.502 252.309 148.41 250.625 146.247 250.687C143.711 250.785 135.414 253.666 133.836 255.855C132.924 257.133 132.309 258.599 132.036 260.146Z"></path><path fill="#00154A" stroke="none" fill-opacity="1" stroke-width="1" stroke-opacity="1" color="rgb(51, 51, 51)" id="tSvg17b00d61930" title="Path 208" d="M143.287 268.337C142.597 268.192 141.974 267.825 141.514 267.291C141.434 267.211 141.389 267.103 141.387 266.99C141.385 266.877 141.426 266.767 141.501 266.683C141.577 266.6 141.682 266.548 141.795 266.539C141.908 266.53 142.019 266.565 142.107 266.635C142.445 266.959 142.831 267.228 143.251 267.433C143.619 266.859 143.916 266.243 144.138 265.598C144.18 265.491 144.262 265.404 144.367 265.357C144.473 265.309 144.592 265.305 144.701 265.344C144.809 265.383 144.898 265.463 144.949 265.567C144.999 265.671 145.007 265.79 144.971 265.9C144.616 266.848 144.084 268.036 143.641 268.266C143.531 268.322 143.409 268.346 143.287 268.337Z"></path><path fill="#00154A" stroke="none" fill-opacity="1" stroke-width="1" stroke-opacity="1" color="rgb(51, 51, 51)" id="tSvgf5ccfdbaaf" title="Path 209" d="M143.267 271.183C143.041 271.185 142.816 271.167 142.593 271.13C142.479 271.104 142.38 271.035 142.315 270.938C142.251 270.84 142.227 270.722 142.248 270.607C142.259 270.55 142.282 270.495 142.315 270.447C142.347 270.399 142.389 270.357 142.438 270.325C142.486 270.293 142.541 270.271 142.598 270.26C142.655 270.249 142.714 270.249 142.771 270.261C143.558 270.388 144.364 270.246 145.061 269.859C145.757 269.471 146.303 268.86 146.609 268.124C146.661 268.019 146.752 267.937 146.862 267.895C146.973 267.854 147.095 267.857 147.203 267.903C147.256 267.928 147.304 267.963 147.344 268.006C147.383 268.049 147.414 268.1 147.434 268.155C147.453 268.211 147.462 268.269 147.459 268.328C147.456 268.386 147.441 268.444 147.416 268.497C147.069 269.306 146.49 269.993 145.751 270.472C145.012 270.95 144.147 271.198 143.267 271.183Z"></path><path fill="#00154A" stroke="none" fill-opacity="1" stroke-width="1" stroke-opacity="1" color="rgb(51, 51, 51)" id="tSvg2feecb7f94" title="Path 210" d="M135.512 264.065C135.4883 264.065 135.4647 264.065 135.441 264.065C135.384 264.056 135.33 264.036 135.281 264.007C135.232 263.977 135.19 263.938 135.156 263.892C135.122 263.846 135.098 263.794 135.085 263.738C135.071 263.682 135.069 263.625 135.077 263.568C135.077 263.506 135.352 261.946 138.047 261.388C138.165 261.363 138.287 261.386 138.388 261.452C138.488 261.517 138.559 261.62 138.584 261.738C138.608 261.855 138.585 261.978 138.52 262.078C138.454 262.179 138.351 262.249 138.233 262.274C136.186 262.7 135.964 263.692 135.955 263.737C135.928 263.833 135.869 263.917 135.789 263.976C135.709 264.036 135.612 264.067 135.512 264.065Z"></path><path fill="#00154A" stroke="none" fill-opacity="1" stroke-width="1" stroke-opacity="1" color="rgb(51, 51, 51)" id="tSvg1533c344e78" title="Path 211" d="M142.779 260.633C142.694 260.635 142.611 260.611 142.54 260.566C142.468 260.52 142.411 260.455 142.376 260.378C142.341 260.301 142.33 260.215 142.343 260.131C142.357 260.047 142.394 259.969 142.451 259.907C142.951 259.382 143.581 258.999 144.277 258.796C144.973 258.594 145.71 258.579 146.414 258.754C146.471 258.767 146.525 258.79 146.573 258.824C146.621 258.858 146.662 258.9 146.693 258.95C146.724 258.999 146.746 259.054 146.756 259.112C146.765 259.17 146.764 259.229 146.751 259.286C146.738 259.343 146.714 259.397 146.681 259.444C146.647 259.492 146.604 259.532 146.554 259.563C146.505 259.593 146.449 259.614 146.392 259.623C146.334 259.631 146.275 259.628 146.219 259.614C145.669 259.478 145.094 259.489 144.549 259.644C144.005 259.8 143.511 260.095 143.116 260.5C143.072 260.545 143.02 260.579 142.962 260.602C142.904 260.625 142.841 260.636 142.779 260.633Z"></path><path fill="#00154A" stroke="none" fill-opacity="1" stroke-width="1" stroke-opacity="1" color="rgb(51, 51, 51)" id="tSvg3ebb968d1" title="Path 212" d="M138.675 264.384C138.914 264.854 138.852 265.377 138.533 265.545C138.214 265.713 137.753 265.465 137.505 264.995C137.257 264.526 137.327 264.002 137.647 263.834C137.966 263.666 138.427 263.914 138.675 264.384Z"></path><path fill="#00154A" stroke="none" fill-opacity="1" stroke-width="1" stroke-opacity="1" color="rgb(51, 51, 51)" id="tSvgd3e7bb9f3b" title="Path 213" d="M145.723 262.22C145.972 262.69 145.901 263.204 145.582 263.372C145.262 263.541 144.802 263.293 144.562 262.823C144.323 262.353 144.376 261.83 144.704 261.67C145.032 261.511 145.449 261.741 145.723 262.22Z"></path><path fill="#00154A" stroke="none" fill-opacity="1" stroke-width="1" stroke-opacity="1" color="rgb(51, 51, 51)" id="tSvg8e9e9fbaeb" title="Path 214" d="M147.424 245.155C147.424 245.155 146.414 242.017 145.004 241.21C143.595 240.404 138.639 240.102 134.304 242.726C129.969 245.35 128.542 248.985 128.347 252.017C128.152 255.048 127.461 257.77 128.746 258.275C130.032 258.781 131.406 257.167 131.406 257.167C131.406 257.167 129.189 260.5 131.911 261.307C134.632 262.114 139.18 256.963 139.18 256.963C139.18 256.963 137.974 259.286 140.598 258.577C143.222 257.867 146.76 252.424 146.76 252.424C146.76 252.424 147.362 255.146 147.566 255.554C147.77 255.962 149.082 257.672 149.082 256.662C149.082 255.651 148.878 254.339 149.18 253.834C149.748 253.247 150.392 252.737 151.094 252.318C150.528 249.725 149.821 247.166 148.976 244.65C148.231 243.134 147.424 245.155 147.424 245.155Z"></path><path fill="#00154A" stroke="none" fill-opacity="1" stroke-width="1" stroke-opacity="1" color="rgb(51, 51, 51)" id="tSvg448b9f8f47" title="Path 215" d="M132.497 261.839C132.245 261.84 131.995 261.804 131.753 261.733C131.408 261.654 131.087 261.493 130.818 261.263C130.55 261.033 130.341 260.741 130.21 260.412C130.027 259.835 130.027 259.216 130.21 258.639C129.955 258.762 129.678 258.833 129.395 258.848C129.112 258.863 128.829 258.822 128.561 258.728C127.241 258.214 127.436 256.379 127.675 254.038C127.746 253.4 127.826 252.717 127.87 252.026C128.056 249.216 129.279 245.262 134.075 242.381C138.508 239.722 143.632 239.952 145.227 240.865C146.282 241.468 147.089 243.108 147.514 244.154C147.611 244.021 147.734 243.91 147.876 243.828C148.018 243.745 148.176 243.693 148.339 243.675C148.72 243.675 149.084 243.941 149.341 244.491C150.208 247.036 150.927 249.629 151.495 252.257C151.515 252.347 151.507 252.441 151.472 252.526C151.438 252.612 151.377 252.685 151.3 252.735C150.648 253.105 150.051 253.564 149.527 254.1C149.399 254.644 149.375 255.206 149.456 255.758C149.456 256.077 149.456 256.396 149.456 256.698C149.456 257.265 149.119 257.407 148.977 257.442C148.162 257.629 147.107 255.802 147.098 255.785C146.842 255.052 146.635 254.302 146.477 253.542C145.343 255.138 142.772 258.471 140.644 259.047C140.281 259.144 139.173 259.437 138.632 258.772C138.538 258.648 138.469 258.506 138.428 258.356C137.072 259.694 134.572 261.839 132.497 261.839ZM131.372 256.724C131.468 256.722 131.562 256.754 131.638 256.813C131.729 256.881 131.792 256.981 131.811 257.093C131.831 257.205 131.807 257.321 131.744 257.416C131.442 257.868 130.724 259.242 131.044 260.075C131.13 260.272 131.263 260.446 131.432 260.58C131.6 260.714 131.798 260.806 132.01 260.847C134.022 261.449 137.604 258.01 138.818 256.636C138.891 256.556 138.99 256.505 139.097 256.492C139.205 256.479 139.313 256.505 139.403 256.565C139.49 256.627 139.552 256.719 139.578 256.822C139.604 256.926 139.592 257.036 139.545 257.132C139.359 257.487 139.244 258.019 139.359 258.143C139.474 258.267 139.731 258.311 140.449 258.143C142.462 257.602 145.396 253.648 146.353 252.168C146.402 252.097 146.469 252.042 146.547 252.007C146.625 251.973 146.712 251.961 146.796 251.973C146.883 251.989 146.963 252.03 147.027 252.092C147.09 252.153 147.133 252.232 147.151 252.319C147.444 253.631 147.816 255.12 147.922 255.341C148.113 255.659 148.336 255.956 148.587 256.228C148.587 256.068 148.587 255.909 148.587 255.758C148.468 255.032 148.535 254.288 148.782 253.595C149.289 253.006 149.888 252.503 150.555 252.106C150.015 249.645 149.341 247.215 148.534 244.828C148.491 244.705 148.418 244.595 148.321 244.509C148.111 244.742 147.945 245.013 147.834 245.306C147.803 245.392 147.746 245.466 147.671 245.518C147.597 245.57 147.508 245.598 147.417 245.598C147.326 245.598 147.237 245.57 147.163 245.518C147.088 245.466 147.031 245.392 147 245.306C146.734 244.482 145.812 242.213 144.775 241.619C143.738 241.025 138.924 240.466 134.527 243.126C130.13 245.785 128.951 249.464 128.783 252.061C128.73 252.771 128.659 253.471 128.588 254.118C128.393 255.891 128.207 257.62 128.898 257.886C129.882 258.258 131.008 256.919 131.026 256.902C131.065 256.847 131.117 256.802 131.177 256.771C131.237 256.74 131.304 256.724 131.372 256.724Z"></path><path fill="white" stroke="#00154A" fill-opacity="1" stroke-width="1.15613" stroke-opacity="1" color="rgb(51, 51, 51)" stroke-linecap="round" stroke-linejoin="round" id="tSvg187a2f9cf62" title="Path 216" d="M122.184 290.972C120.81 296.353 119.135 303.382 118.869 304.854C118.434 307.194 122.698 311.875 124.4 310.811C125.482 310.137 128.7 302.602 130.916 297.186C128.0053 295.1147 125.0947 293.0433 122.184 290.972Z"></path><path fill="white" stroke="none" fill-opacity="1" stroke-width="1" stroke-opacity="1" color="rgb(51, 51, 51)" id="tSvg76d7ac55b1" title="Path 217" d="M119.108 302.506C119.108 302.506 117.397 311.025 117.61 314.642C117.823 318.259 129.959 336.574 129.959 336.574C130.3137 335.0963 130.6683 333.6187 131.023 332.141C131.023 332.141 127.193 314.89 126.768 311.699C126.504 309.64 126.362 307.568 126.342 305.493"></path><path fill="none" stroke="#00154A" fill-opacity="1" stroke-width="1.15613" stroke-opacity="1" color="rgb(51, 51, 51)" stroke-linecap="round" stroke-linejoin="round" id="tSvg4050a3e987" title="Path 218" d="M119.108 302.506C119.108 302.506 117.397 311.025 117.61 314.642C117.823 318.259 129.959 336.574 129.959 336.574C130.3137 335.0963 130.6683 333.6187 131.023 332.141C131.023 332.141 127.193 314.89 126.768 311.699C126.504 309.64 126.362 307.568 126.342 305.493"></path><path fill="white" stroke="#00154A" fill-opacity="1" stroke-width="1.15613" stroke-opacity="1" color="rgb(51, 51, 51)" stroke-linecap="round" stroke-linejoin="round" id="tSvg15859ada878" title="Path 219" d="M128.212 343.487C128.072 344.324 128.189 345.183 128.549 345.952C129.143 346.962 132.626 347.982 132.706 347.388C132.786 346.794 132.795 344.844 132.795 344.844C131.2673 344.3917 129.7397 343.9393 128.212 343.487Z"></path><path fill="white" stroke="#00154A" fill-opacity="1" stroke-width="1.15613" stroke-opacity="1" color="rgb(51, 51, 51)" stroke-linecap="round" stroke-linejoin="round" id="tSvg1783bb25863" title="Path 220" d="M127.956 341.875C127.821 342.713 127.942 343.571 128.302 344.339C128.896 345.359 132.371 346.369 132.459 345.776C132.548 345.182 132.539 343.231 132.539 343.231C131.0113 342.779 129.4837 342.327 127.956 341.875Z"></path><path fill="white" stroke="#00154A" fill-opacity="1" stroke-width="1.15613" stroke-opacity="1" color="rgb(51, 51, 51)" stroke-linecap="round" stroke-linejoin="round" id="tSvg9719f8cdd9" title="Path 221" d="M127.618 339.667C127.478 340.504 127.595 341.363 127.955 342.131C128.549 343.151 132.033 344.17 132.113 343.576C132.192 342.982 132.201 341.023 132.201 341.023C130.6733 340.571 129.1457 340.119 127.618 339.667Z"></path><path fill="white" stroke="#00154A" fill-opacity="1" stroke-width="1.15613" stroke-opacity="1" color="rgb(51, 51, 51)" stroke-linecap="round" stroke-linejoin="round" id="tSvg1563fbad7e7" title="Path 222" d="M130.598 331.042C130.598 331.042 127.406 338.063 127.406 339.126C127.406 340.19 131.839 342.318 131.839 342.318C131.9097 337.776 131.9803 333.234 132.051 328.692C131.5667 329.4753 131.0823 330.2587 130.598 331.042Z"></path><path fill="#7234C4" stroke="#00154A" fill-opacity="1" stroke-width="1.15613" stroke-opacity="1" color="rgb(51, 51, 51)" stroke-linecap="round" stroke-linejoin="round" id="tSvg12d43a46931" title="Path 223" d="M175.02 327.823C160.2067 327.823 145.3933 327.823 130.58 327.823C130.58 341.1203 130.58 354.4177 130.58 367.715C145.3933 367.715 160.2067 367.715 175.02 367.715C175.02 354.4177 175.02 341.1203 175.02 327.823Z"></path><path fill="white" stroke="none" fill-opacity="1" stroke-width="1" stroke-opacity="1" color="rgb(51, 51, 51)" id="tSvgb0b8600e88" title="Path 224" d="M155.362 363.179C162.25 361.543 166.508 354.633 164.872 347.745C163.236 340.857 156.326 336.599 149.438 338.235C142.551 339.871 138.293 346.781 139.929 353.669C141.565 360.557 148.475 364.815 155.362 363.179Z"></path><path fill="white" stroke="#00154A" fill-opacity="1" stroke-width="1.15613" stroke-opacity="1" color="rgb(51, 51, 51)" stroke-linecap="round" stroke-linejoin="round" id="tSvg118af25e925" title="Path 225" d="M156.119 327.823C153.903 327.823 151.687 327.823 149.471 327.823C149.471 330.1547 149.471 332.4863 149.471 334.818C151.687 334.818 153.903 334.818 156.119 334.818C156.119 332.4863 156.119 330.1547 156.119 327.823Z"></path><path fill="white" stroke="#00154A" fill-opacity="1" stroke-width="1.15613" stroke-opacity="1" color="rgb(51, 51, 51)" stroke-linecap="round" stroke-linejoin="round" id="tSvg16e542d50d3" title="Path 226" d="M160.525 333.462C166.305 325.2737 172.085 317.0853 177.865 308.897C178.466 308.4 178.91 307.74 179.145 306.996C179.379 306.252 179.393 305.456 179.185 304.704C178.751 303.383 170.968 272.223 170.968 272.223C170.968 272.223 166.624 264.839 162.032 269.351C158.309 273.021 161.012 281.389 162.156 284.421C162.555 285.476 162.918 286.54 163.246 287.622C164.629 293.5467 166.012 299.4713 167.395 305.396C163.465 314.2607 159.535 323.1253 155.605 331.99C155.605 331.99 150.658 334.596 149.878 335.093C149.098 335.589 147.529 337.805 146.607 338.949C145.685 340.093 144.081 340.341 145.144 340.979C146.208 341.617 146.917 340.828 147.423 340.403C148.2533 339.6907 149.0837 338.9783 149.914 338.266C149.1307 340.7957 148.3473 343.3253 147.564 345.855C147.497 346.068 147.512 346.299 147.608 346.501C147.703 346.703 147.871 346.862 148.079 346.945C148.289 347.03 148.523 347.032 148.734 346.949C148.945 346.867 149.117 346.707 149.213 346.502C150.005 344.8293 150.797 343.1567 151.589 341.484C151.4177 343.4077 151.2463 345.3313 151.075 347.255C151.057 347.469 151.123 347.68 151.259 347.846C151.395 348.011 151.589 348.117 151.802 348.142C151.991 348.164 152.183 348.121 152.344 348.019C152.505 347.918 152.627 347.764 152.688 347.583C153.279 345.81 153.87 344.037 154.461 342.264C154.4317 343.839 154.4023 345.414 154.373 346.989C154.4497 347.394 154.5263 347.799 154.603 348.204C155.906 348.629 155.951 347.078 156.03 346.271C156.1573 345.0447 156.2847 343.8183 156.412 342.592C156.8287 343.9573 157.2453 345.3227 157.662 346.688C158.146 345.89 158.367 344.959 158.291 344.029C158.1847 342.7463 158.0783 341.4637 157.972 340.181C158.427 338.423 158.882 336.665 159.337 334.907C159.733 334.4253 160.129 333.9437 160.525 333.462Z"></path><path fill="white" stroke="#00154A" fill-opacity="1" stroke-width="1.15613" stroke-opacity="1" color="rgb(51, 51, 51)" stroke-linecap="round" stroke-linejoin="round" id="tSvgfae9c54a9c" title="Path 227" d="M163.565 288.64C163.4587 288.2913 163.3523 287.9427 163.246 287.594C162.918 286.513 162.554 285.449 162.156 284.394C161.012 281.389 158.308 273.02 162.031 269.324C166.623 264.811 170.967 272.196 170.967 272.196C170.967 272.196 172.563 278.649 174.247 285.387C170.6863 286.4713 167.1257 287.5557 163.565 288.64Z"></path><path fill="#7234C4" stroke="#00154A" fill-opacity="1" stroke-width="1.15613" stroke-opacity="1" color="rgb(51, 51, 51)" stroke-linecap="round" stroke-linejoin="round" id="tSvge94a5e7394" title="Path 228" d="M183.927 367.805C162.8757 367.805 141.8243 367.805 120.773 367.805C120.773 386.7017 120.773 405.5983 120.773 424.495C141.8243 424.495 162.8757 424.495 183.927 424.495C183.927 405.5983 183.927 386.7017 183.927 367.805Z"></path><path fill="white" stroke="none" fill-opacity="1" stroke-width="1" stroke-opacity="1" color="rgb(51, 51, 51)" id="tSvg41054c5c21" title="Path 229" d="M151.409 415.852C160.917 415.852 168.624 408.144 168.624 398.636C168.624 389.129 160.917 381.421 151.409 381.421C141.901 381.421 134.193 389.129 134.193 398.636C134.193 408.144 141.901 415.852 151.409 415.852Z"></path><path fill="white" stroke="#00154A" fill-opacity="1" stroke-width="1.15613" stroke-opacity="1" color="rgb(51, 51, 51)" stroke-linecap="round" stroke-linejoin="round" id="tSvg7ec68a90fd" title="Path 230" d="M156.124 367.805C154.2563 367.805 152.3887 367.805 150.521 367.805C150.521 370.937 150.521 374.069 150.521 377.201C152.3887 377.201 154.2563 377.201 156.124 377.201C156.124 374.069 156.124 370.937 156.124 367.805Z"></path><path fill="#7234C4" stroke="#00154A" fill-opacity="1" stroke-width="1.15613" stroke-opacity="1" color="rgb(51, 51, 51)" stroke-linecap="round" stroke-linejoin="round" id="tSvg10b765e0aa8" title="Path 231" d="M125.338 344.286C110.5248 344.286 95.7116 344.286 80.8984 344.286C80.8984 357.5833 80.8984 370.8807 80.8984 384.178C95.7116 384.178 110.5248 384.178 125.338 384.178C125.338 370.8807 125.338 357.5833 125.338 344.286Z"></path><path fill="white" stroke="none" fill-opacity="1" stroke-width="1" stroke-opacity="1" color="rgb(51, 51, 51)" id="tSvg77cadf935b" title="Path 232" d="M106.164 379.661C113.039 377.975 117.246 371.034 115.56 364.158C113.874 357.283 106.933 353.076 100.057 354.762C93.1813 356.448 88.9744 363.389 90.6607 370.265C92.347 377.141 99.288 381.348 106.164 379.661Z"></path><path fill="white" stroke="#00154A" fill-opacity="1" stroke-width="1.15613" stroke-opacity="1" color="rgb(51, 51, 51)" stroke-linecap="round" stroke-linejoin="round" id="tSvg4d614b7e7c" title="Path 233" d="M106.438 344.286C104.2217 344.286 102.0054 344.286 99.7891 344.286C99.7891 346.6177 99.7891 348.9493 99.7891 351.281C102.0054 351.281 104.2217 351.281 106.438 351.281C106.438 348.9493 106.438 346.6177 106.438 344.286Z"></path><path fill="#7234C4" stroke="#00154A" fill-opacity="1" stroke-width="1.15613" stroke-opacity="1" color="rgb(51, 51, 51)" stroke-linecap="round" stroke-linejoin="round" id="tSvg10a7dc9a34d" title="Path 234" d="M125.338 384.604C110.5248 384.604 95.7116 384.604 80.8984 384.604C80.8984 397.901 80.8984 411.198 80.8984 424.495C95.7116 424.495 110.5248 424.495 125.338 424.495C125.338 411.198 125.338 397.901 125.338 384.604Z"></path><path fill="white" stroke="none" fill-opacity="1" stroke-width="1" stroke-opacity="1" color="rgb(51, 51, 51)" id="tSvg7a203d89a0" title="Path 235" d="M111.789 416.955C117 412.163 117.34 404.054 112.548 398.842C107.756 393.631 99.6469 393.291 94.4357 398.083C89.2245 402.875 88.8847 410.984 93.6766 416.196C98.4686 421.407 106.578 421.747 111.789 416.955Z"></path><path fill="white" stroke="#00154A" fill-opacity="1" stroke-width="1.15613" stroke-opacity="1" color="rgb(51, 51, 51)" stroke-linecap="round" stroke-linejoin="round" id="tSvgd8ab6e6cbf" title="Path 236" d="M106.438 384.604C104.2217 384.604 102.0054 384.604 99.7891 384.604C99.7891 386.9353 99.7891 389.2667 99.7891 391.598C102.0054 391.598 104.2217 391.598 106.438 391.598C106.438 389.2667 106.438 386.9353 106.438 384.604Z"></path><path fill="none" stroke="#00154A" fill-opacity="1" stroke-width="1.15613" stroke-opacity="1" color="rgb(51, 51, 51)" stroke-linecap="round" stroke-linejoin="round" id="tSvg93380d86e4" title="Path 237" d="M61.1309 424.858C185.3719 424.858 309.613 424.858 433.854 424.858"></path><path fill="#00154A" stroke="none" fill-opacity="1" stroke-width="1" stroke-opacity="1" color="rgb(51, 51, 51)" id="tSvg1602a9fd03b" title="Path 238" d="M369.556 177C345.1443 177 320.7327 177 296.321 177C296.266 177.001 296.211 176.988 296.163 176.961C296.114 176.933 296.073 176.893 296.045 176.845C296.016 176.796 296.001 176.741 296 176.684C295.999 176.627 296.013 176.571 296.04 176.522C297.292 174.268 299.111 172.4 301.305 171.112C303.405 169.966 306.462 170.359 308.69 170.653C309.692 170.778 311.07 170.961 311.242 170.752C311.379 170.544 311.499 170.325 311.6 170.097C312.136 168.983 312.953 167.307 316.131 166.73C317.893 166.409 319.469 167.025 320.739 167.523C322.475 168.178 323.337 168.473 323.93 167.143C324.272 166.294 324.545 165.418 324.747 164.523C325.5 161.622 326.349 158.334 330.204 157.797C332.578 157.463 334.544 158.609 336.126 159.526C337.269 160.181 338.258 160.764 338.998 160.554C339.224 160.467 339.43 160.334 339.605 160.165C339.78 159.995 339.921 159.791 340.019 159.565C341.098 157.6 342.987 155.085 345.872 154.273C348.137 153.618 350.671 154.149 353.409 155.773C357.098 157.974 358.77 160.921 358.821 165.335C358.821 165.519 358.821 165.689 358.853 165.853C359.121 168.171 361.112 168.145 363.416 168.106C364.98 168.106 366.607 168.053 367.718 168.852C370.749 171.007 369.9 176.502 369.862 176.712C369.854 176.79 369.819 176.862 369.762 176.916C369.706 176.969 369.632 176.999 369.556 177ZM296.876 176.345C321.009 176.345 345.142 176.345 369.275 176.345C369.403 175.238 369.709 171.046 367.36 169.383C366.416 168.728 364.897 168.728 363.429 168.728C361.151 168.728 358.559 168.8 358.228 165.899C358.228 165.715 358.215 165.519 358.189 165.309C358.138 161.098 356.613 158.406 353.084 156.31C350.531 154.771 348.137 154.286 346.063 154.876C343.396 155.623 341.596 157.993 340.6 159.853C340.464 160.158 340.268 160.432 340.026 160.657C339.783 160.882 339.499 161.054 339.19 161.163C338.194 161.452 337.103 160.816 335.839 160.076C334.263 159.159 332.476 158.111 330.319 158.426C326.879 158.904 326.125 161.838 325.392 164.674C325.182 165.607 324.896 166.521 324.536 167.405C323.662 169.37 322.143 168.754 320.535 168.125C319.258 167.628 317.848 167.071 316.265 167.359C313.4 167.877 312.697 169.324 312.193 170.372C312.072 170.636 311.931 170.89 311.772 171.132C311.396 171.649 310.349 171.511 308.619 171.289C306.481 171.007 303.546 170.634 301.599 171.682C299.676 172.815 298.054 174.417 296.876 176.345Z"></path></svg> 