<svg width="56" height="56" viewBox="0 0 56 56" fill="none" xmlns="http://www.w3.org/2000/svg">
<path d="M9.11943 42.0329C9.31207 43.9543 10.8249 45.4882 12.7419 45.7208C17.633 46.3143 22.7428 47.075 27.9998 47.075C33.2568 47.075 38.3666 46.3143 43.2578 45.7208C45.1748 45.4882 46.6876 43.9543 46.8802 42.0329C47.4181 36.6682 48.1022 31.0581 48.1022 25.2836C48.1022 19.5091 47.4181 13.899 46.8802 8.53431C46.6876 6.61292 45.1748 5.07901 43.2578 4.84642C38.3666 4.25297 33.2568 3.49219 27.9998 3.49219C22.7428 3.49219 17.633 4.25297 12.7418 4.84642C10.8249 5.07901 9.31207 6.61291 9.11943 8.53431C8.58155 13.899 7.89746 19.5091 7.89746 25.2836C7.89746 31.0581 8.58155 36.6682 9.11943 42.0329Z" fill="white" stroke="#90CAF9" stroke-width="6" stroke-linejoin="round"/>
<path d="M15.5029 46.0625L15.5029 52.5884" stroke="#90CAF9" stroke-width="6" stroke-linecap="round" stroke-linejoin="round"/>
<path d="M40.4971 46.0625L40.4971 52.5884" stroke="#90CAF9" stroke-width="6" stroke-linecap="round" stroke-linejoin="round"/>
<path d="M48.0864 23.7431H7.91309C8.00122 19.3551 8.44533 15.0672 8.87532 10.9155C8.95806 10.1166 9.04027 9.32281 9.11933 8.53431C9.31197 6.61291 10.8248 5.07901 12.7417 4.84642C13.486 4.75613 14.2352 4.66196 14.9893 4.56718C19.1913 4.03907 23.5426 3.49219 27.9997 3.49219C32.4568 3.49219 36.8082 4.03907 41.0101 4.56718C41.7642 4.66196 42.5135 4.75613 43.2577 4.84642C45.1747 5.07901 46.6875 6.61292 46.8801 8.53431C46.9592 9.32283 47.0414 10.1167 47.1241 10.9155C47.5541 15.0672 47.9982 19.3551 48.0864 23.7431Z" fill="#E7F3FD" stroke="#90CAF9" stroke-width="6" stroke-linejoin="round"/>
<path d="M19.5876 36.6527C18.7992 36.6527 18.1602 35.9782 18.1602 35.1462C18.1602 34.3141 18.7992 33.6396 19.5876 33.6396" stroke="#90CAF9" stroke-width="6" stroke-linecap="round" stroke-linejoin="round"/>
<path d="M19.587 33.6384C20.3753 33.6384 21.0144 34.3128 21.0144 35.1449C21.0144 35.9769 20.3753 36.6514 19.587 36.6514" stroke="#90CAF9" stroke-width="6" stroke-linecap="round" stroke-linejoin="round"/>
<path d="M36.4128 36.6527C35.6244 36.6527 34.9854 35.9782 34.9854 35.1462C34.9854 34.3141 35.6244 33.6396 36.4128 33.6396" stroke="#90CAF9" stroke-width="6" stroke-linecap="round" stroke-linejoin="round"/>
<path d="M36.4122 33.6384C37.2005 33.6384 37.8396 34.3128 37.8396 35.1449C37.8396 35.9769 37.2005 36.6514 36.4122 36.6514" stroke="#90CAF9" stroke-width="6" stroke-linecap="round" stroke-linejoin="round"/>
</svg>
