<svg width="56" height="56" viewBox="0 0 56 56" fill="none" xmlns="http://www.w3.org/2000/svg">
<path d="M13.6147 43.328L11.6147 51.328" stroke="#90CAF9" stroke-width="6" stroke-linecap="round"/>
<path d="M42.6147 43.328L44.6147 51.328" stroke="#90CAF9" stroke-width="6" stroke-linecap="round"/>
<path d="M28.1574 10C22.4046 10 16.0983 10 11.4894 11.01868C9.41467 11.48375 7.84332 13.39272 7.54474 15.85248C6.61574 20.0941 6.61574 23.9958 6.61574 30C6.61574 36.0042 6.61574 39.9059 7.54474 44.1475C7.84332 46.6073 9.41467 48.5163 11.4894 48.9813C16.0983 50 22.4046 50 28.1574 50C33.9102 50 40.2165 50 44.8254 48.9813C46.9001 48.5163 48.4715 46.6073 48.7701 44.1475C49.6991 39.9059 49.6991 36.0042 49.6991 30C49.6991 23.9958 49.6991 20.0941 48.7701 15.85248C48.4715 13.39272 46.9001 11.48375 44.8254 11.01868C40.2165 10 33.9102 10 28.1574 10Z" fill="#E7F3FD" stroke="#90CAF9" stroke-width="6"/>
<path d="M17.6147 27V33" stroke="#90CAF9" stroke-width="6" stroke-linecap="round"/>
<circle cx="34.5" cy="30" r="4.5" stroke="#90CAF9" stroke-width="6"/>
<path d="M34.5 25.5L34.5 22.5" stroke="#90CAF9" stroke-width="6" stroke-linecap="round"/>
<path d="M34.5 37.5L34.5 34.5" stroke="#90CAF9" stroke-width="6" stroke-linecap="round"/>
<path d="M38.7 27.5L41.2 26.2" stroke="#90CAF9" stroke-width="6" stroke-linecap="round"/>
<path d="M27.8 33.8L30.3 32.5" stroke="#90CAF9" stroke-width="6" stroke-linecap="round"/>
<path d="M38.7 32.5L41.2 33.8" stroke="#90CAF9" stroke-width="6" stroke-linecap="round"/>
<path d="M27.8 26.2L30.3 27.5" stroke="#90CAF9" stroke-width="6" stroke-linecap="round"/>
</svg>
