<svg width="56" height="56" viewBox="0 0 56 56" fill="none" xmlns="http://www.w3.org/2000/svg">
<path d="M28 3C21.5 3 14.5 3 9.2 4.1C6.8 4.6 4.9 6.8 4.5 9.5C3.5 13.5 3.5 17 3.5 24C3.5 31 3.5 34.5 4.5 38.5C4.9 41.2 6.8 43.4 9.2 43.9C14.5 45 21.5 45 28 45C34.5 45 41.5 45 46.8 43.9C49.2 43.4 51.1 41.2 51.5 38.5C52.5 34.5 52.5 31 52.5 24C52.5 17 52.5 13.5 51.5 9.5C51.1 6.8 49.2 4.6 46.8 4.1C41.5 3 34.5 3 28 3Z" fill="#E7F3FD" stroke="#90CAF9" stroke-width="6"/>
<path d="M15 19V25" stroke="#90CAF9" stroke-width="6" stroke-linecap="round"/>
<circle cx="32" cy="24" r="4.5" stroke="#90CAF9" stroke-width="6"/>
<path d="M32 19.5L32 16.5" stroke="#90CAF9" stroke-width="6" stroke-linecap="round"/>
<path d="M32 31.5L32 28.5" stroke="#90CAF9" stroke-width="6" stroke-linecap="round"/>
<path d="M36.2 21.5L38.7 20.2" stroke="#90CAF9" stroke-width="6" stroke-linecap="round"/>
<path d="M25.3 27.8L27.8 26.5" stroke="#90CAF9" stroke-width="6" stroke-linecap="round"/>
<path d="M36.2 26.5L38.7 27.8" stroke="#90CAF9" stroke-width="6" stroke-linecap="round"/>
<path d="M25.3 20.2L27.8 21.5" stroke="#90CAF9" stroke-width="6" stroke-linecap="round"/>
<path d="M16 45L14 53" stroke="#90CAF9" stroke-width="6" stroke-linecap="round"/>
<path d="M40 45L42 53" stroke="#90CAF9" stroke-width="6" stroke-linecap="round"/>
</svg>
