<svg width="56" height="56" viewBox="0 0 56 56" fill="none" xmlns="http://www.w3.org/2000/svg">
<path d="M10.3554 45.3863C10.5771 49.243 13.6292 52.3064 17.4899 52.4402C26.4544 52.7509 37.3416 52.4235 42.9799 52.2036C45.1086 52.1206 46.7754 50.3669 46.7754 48.2366V18.0811C46.7754 15.9508 45.1086 14.1972 42.9799 14.1141C36.6193 13.866 23.5791 13.4812 14.1547 14.0299C12.2264 14.1422 10.7104 15.6773 10.5713 17.6038C9.89005 27.0405 9.81806 36.0416 10.3554 45.3863Z" fill="#E7F3FD" stroke="#90CAF9" stroke-width="6" stroke-linejoin="round"/>
<path d="M11.7073 15.1216C11.7064 15.1224 11.7082 15.1207 11.7073 15.1216C17.8859 5.74329 31.0093 1.65071 42.1477 3.75039L42.1477 14.0829C35.535 13.836 23.185 13.5046 14.1546 14.0304C13.1996 14.086 12.3429 14.4933 11.7073 15.1216Z" fill="white"/>
<path d="M11.7073 15.1216C11.7082 15.1207 11.7064 15.1224 11.7073 15.1216ZM11.7073 15.1216C17.8859 5.74329 31.0093 1.65071 42.1477 3.75039L42.1477 14.0829C35.535 13.836 23.185 13.5046 14.1546 14.0304C13.1996 14.086 12.3429 14.4933 11.7073 15.1216Z" stroke="#90CAF9" stroke-width="6" stroke-linejoin="round"/>
<circle cx="28.3877" cy="29.25" r="6" fill="white" stroke="#90CAF9" stroke-width="6" stroke-linejoin="round"/>
<path d="M33.7695 43.0908L23.0059 43.0908" stroke="#90CAF9" stroke-width="6" stroke-linecap="round" stroke-linejoin="round"/>
</svg>
