<svg width="56" height="56" viewBox="0 0 56 56" fill="none" xmlns="http://www.w3.org/2000/svg">
<path d="M28 13C21.7891 13 15.2939 13 9.87366 14.0187C7.39893 14.4838 5.4678 16.3927 4.92905 18.8525C4 23.0941 4 26.9958 4 33C4 39.0042 4 42.9059 4.92905 47.1475C5.4678 49.6073 7.39893 51.5162 9.87366 51.9813C15.2939 53 21.7891 53 28 53C34.2109 53 40.7061 53 46.1263 51.9813C48.6011 51.5162 50.5322 49.6073 51.071 47.1475C52 42.9059 52 39.0042 52 33C52 26.9958 52 23.0941 51.071 18.8525C50.5322 16.3927 48.6011 14.4838 46.1263 14.0187C40.7061 13 34.2109 13 28 13Z" fill="#E7F3FD" stroke="#90CAF9" stroke-width="6" stroke-linejoin="round"/>
<path d="M18 13V11C18 6.58172 21.5817 3 26 3H30C34.4183 3 38 6.58172 38 11V13" stroke="#90CAF9" stroke-width="6" stroke-linejoin="round"/>
<path d="M28.0001 25V41" stroke="#90CAF9" stroke-width="6" stroke-linecap="round" stroke-linejoin="round"/>
<path d="M20 33H36" stroke="#90CAF9" stroke-width="6" stroke-linecap="round" stroke-linejoin="round"/>
</svg>
