<svg width="56" height="56" viewBox="0 0 56 56" fill="none" xmlns="http://www.w3.org/2000/svg">
<path d="M39.8655 25.0191C39.7108 21.9917 38.8344 19.0549 37.3506 16.2311C36.8392 15.2577 35 15.0003 33.5 14.3788C30.226 13.2972 29.9429 13 25.5 13C21 13.5 21 13.5 17.1205 14.3788C16.0817 14.5958 15.5 14.7434 12.188 15.5003C10 16.0003 9 16.2311 8.51527 19.0003C8.25625 20.4801 8 22.0003 7.5 25.0191C6.03792 25.379 5.21989 27.4666 4.82121 28.9186C4.79998 28.9959 4.7787 29.0733 4.75739 29.1508C4.17381 31.2731 3.56885 33.4733 3.56885 35.7281C3.56885 37.849 4.10407 39.9215 4.65329 41.9264C5.13393 43.681 6.69787 44.9607 8.51527 45.0413C9.72839 45.0951 10.9529 45.1531 12.188 45.2115C17.2947 45.4533 22.583 45.7036 27.9999 45.7036C33.4167 45.7036 38.705 45.4533 43.8118 45.2116C45.0469 45.1531 46.2713 45.0951 47.4845 45.0413C49.3019 44.9607 50.8658 43.681 51.3464 41.9264C51.8957 39.9215 52.4309 37.849 52.4309 35.7281C52.4309 33.4733 51.8259 31.2732 51.2423 29.1508C51.2261 29.0916 51.2098 29.0325 51.1936 28.9735C50.7868 27.493 49.6204 26.3165 48.1247 25.9699C46.717 25.6438 41.2973 25.3223 39.8655 25.0191Z" fill="white" stroke="#90CAF9" stroke-width="6" stroke-linejoin="round"/>
<path d="M16.7161 49.9077C20.1348 49.9077 22.9063 47.1363 22.9063 43.7175C22.9063 40.2988 20.1348 37.5273 16.7161 37.5273C13.2973 37.5273 10.5259 40.2988 10.5259 43.7175C10.5259 47.1363 13.2973 49.9077 16.7161 49.9077Z" fill="#E7F3FD" stroke="#90CAF9" stroke-width="6" stroke-linecap="round" stroke-linejoin="round"/>
<path d="M39.2844 49.9077C42.7032 49.9077 45.4746 47.1363 45.4746 43.7175C45.4746 40.2988 42.7032 37.5273 39.2844 37.5273C35.8657 37.5273 33.0942 40.2988 33.0942 43.7175C33.0942 47.1363 35.8657 49.9077 39.2844 49.9077Z" fill="#E7F3FD" stroke="#90CAF9" stroke-width="6" stroke-linecap="round" stroke-linejoin="round"/>
</svg>
