<svg width="56" height="56" viewBox="0 0 56 56" fill="none" xmlns="http://www.w3.org/2000/svg">
<path d="M8.76982 44.4144C9.09938 48.2454 12.067 51.3711 15.9007 51.6669C23.7061 52.2691 31.2935 52.2691 39.0988 51.6669C42.9325 51.3711 45.8615 48.2364 46.505 44.4455C46.857 42.3713 47.1558 40.4848 47.1558 36C47.1558 27.9958 47.428 24.5953 47.1558 21C46.844 16.8834 44.9825 15.4308 38 10C35.009 7.67369 31.5763 5.73565 29.6103 4.69745C28.5573 4.14136 27.3825 3.87545 26.1918 3.89057C22.9302 3.93199 19.4149 4.08377 15.9017 4.34591C12.0673 4.63202 9.09938 7.75202 8.76982 11.583C8.31406 16.8809 7.84375 22.3718 7.84375 27.9987C7.84375 33.6256 8.31406 39.1165 8.76982 44.4144Z" fill="#E7F3FD" stroke="#90CAF9" stroke-width="6"/>
<path d="M17.6043 40.6889C17.7429 41.9363 18.7347 42.9274 19.9817 43.0695C22.5103 43.3578 25.1446 43.7024 27.8512 43.7024C30.5578 43.7024 33.1921 43.3578 35.7207 43.0695C36.9677 42.9274 37.9595 41.9363 38.0981 40.6889C38.3779 38.1705 38.7024 35.5468 38.7024 32.8512C38.7024 30.1556 38.3779 27.532 38.0981 25.0135C37.9595 23.7661 36.9677 22.7751 35.7207 22.6329C33.1921 22.3446 30.5578 22 27.8512 22C25.1446 22 22.5103 22.3446 19.9817 22.6329C18.7347 22.7751 17.7429 23.7661 17.6043 25.0135C17.3245 27.532 17 30.1556 17 32.8512C17 35.5468 17.3245 38.1705 17.6043 40.6889Z" fill="white" stroke="#90CAF9" stroke-width="3.89811"/>
<path d="M25 33H30.7911" stroke="#90CAF9" stroke-width="6" stroke-linecap="round" stroke-linejoin="round"/>
</svg>
